<svg xmlns="http://www.w3.org/2000/svg" xmlns:xlink="http://www.w3.org/1999/xlink" width="349.568" height="272.745" viewBox="0 0 349.568 272.745">
  <defs>
    <linearGradient id="linear-gradient" x1="0.874" y1="0.974" x2="0.217" y2="0.221" gradientUnits="objectBoundingBox">
      <stop offset="0" stop-color="#2484c6"/>
      <stop offset="1" stop-color="#2484c6" stop-opacity="0"/>
    </linearGradient>
    <linearGradient id="linear-gradient-2" x1="0.097" y1="0.999" x2="0.845" y2="0.158" xlink:href="#linear-gradient"/>
    <linearGradient id="linear-gradient-3" x1="0" y1="0.5" x2="1" y2="0.5" xlink:href="#linear-gradient"/>
    <linearGradient id="linear-gradient-5" x1="1" y1="0.5" x2="0" y2="0.5" gradientUnits="objectBoundingBox">
      <stop offset="0" stop-color="#f7941e"/>
      <stop offset="1" stop-color="#f7941e" stop-opacity="0"/>
    </linearGradient>
  </defs>
  <g id="application-img" transform="translate(-319.91 -116)">
    <g id="Group_3760" data-name="Group 3760">
      <path id="Path_1920" data-name="Path 1920" d="M471.812,381l-4.167-14.123s6.334-26.851-7-28.058c-12.665-1.147-9.269,23.039-8.87,25.624-.434-2.707-5.03-29.546-16.048-25.461-12.331,4.573,7.476,29.451,7.476,29.451-4.443-5.747-15.891-14.252-19.921-5.252-1.757,3.924,2.009,7.577,6.815,10.45-3.075-.725-6.235-1.075-7.254.171-2.84,3.472,2.969,7.518,14.136,7.74,4.046.081,6.1-.756,7.071-1.854l.22.069Z" fill="#78e2ff"/>
      <path id="Path_1921" data-name="Path 1921" d="M471.812,381l-4.167-14.123s6.334-26.851-7-28.058c-12.665-1.147-9.269,23.039-8.87,25.624-.434-2.707-5.03-29.546-16.048-25.461-12.331,4.573,7.476,29.451,7.476,29.451-4.443-5.747-15.891-14.252-19.921-5.252-1.757,3.924,2.009,7.577,6.815,10.45-3.075-.725-6.235-1.075-7.254.171-2.84,3.472,2.969,7.518,14.136,7.74,4.046.081,6.1-.756,7.071-1.854l.22.069Z" fill="url(#linear-gradient)"/>
      <path id="Path_1922" data-name="Path 1922" d="M451.312,381.754s-13.87-5.364-10.526-9.988c2.109-2.916,6.184,2.038,6.184,2.038s-5.361-7.015-.723-9.154c4.815-2.22,7.4,5.866,7.4,5.866s-1.791-7.086,1.875-8.086,3.945,7.086,3.945,7.086,4.735-6.375,7.555-1.291c2.559,4.612-5.208,13.807-5.208,13.807" fill="#00a4d6" opacity="0.2" style="mix-blend-mode: multiply;isolation: isolate"/>
      <path id="Path_1923" data-name="Path 1923" d="M553.645,375.774c.239-2.55-5.487-2.555-9.881-2.091,5.84-3.318,10.933-7.615,9.006-11.917-4.03-9-17.143.922-21.586,6.669,0,0,19.807-24.878,7.476-29.451-11.018-4.085-15.614,22.754-16.048,25.461.4-2.585,3.794-26.771-8.871-25.624C500.408,340.028,502.575,381,502.575,381S552.812,384.68,553.645,375.774Z" fill="#78e2ff"/>
      <path id="Path_1924" data-name="Path 1924" d="M553.645,375.774c.239-2.55-5.487-2.555-9.881-2.091,5.84-3.318,10.933-7.615,9.006-11.917-4.03-9-17.143.922-21.586,6.669,0,0,19.807-24.878,7.476-29.451-11.018-4.085-15.614,22.754-16.048,25.461.4-2.585,3.794-26.771-8.871-25.624C500.408,340.028,502.575,381,502.575,381S552.812,384.68,553.645,375.774Z" fill="url(#linear-gradient-2)"/>
      <path id="Path_1925" data-name="Path 1925" d="M522.867,382.692s13.869-5.364,10.525-9.988c-2.109-2.917-6.184,2.038-6.184,2.038s5.362-7.016.724-9.154c-4.815-2.22-7.4,5.866-7.4,5.866s1.792-7.086-1.875-8.086-3.945,7.086-3.945,7.086-4.735-6.375-7.555-1.292c-2.559,4.613,5.209,13.807,5.209,13.807" fill="#00a4d6" opacity="0.2" style="mix-blend-mode: multiply;isolation: isolate"/>
    </g>
    <g id="Group_3765" data-name="Group 3765">
      <g id="Group_3762" data-name="Group 3762">
        <g id="Group_3761" data-name="Group 3761" opacity="0.2">
          <path id="Path_1926" data-name="Path 1926" d="M362.241,270.641a16.165,16.165,0,1,0,3.635,14.01,16.156,16.156,0,0,0-3.635-14.01Zm.946,13.438a13.41,13.41,0,1,1,.3-2.809A13.481,13.481,0,0,1,363.187,284.079Z" fill="#18bdf7"/>
        </g>
        <path id="Path_1927" data-name="Path 1927" d="M365.876,284.651a16.207,16.207,0,0,1-8.605,11.1l-1.226-2.452a13.481,13.481,0,0,0,7.142-9.216Z" fill="#18bdf7" opacity="0.2"/>
        <path id="Path_1928" data-name="Path 1928" d="M362.241,270.641l-2.073,1.8a13.415,13.415,0,0,0-19.7-.588l-1.963-1.924a16.161,16.161,0,0,1,23.731.709Z" fill="#4a63fe" opacity="0.26"/>
      </g>
      <g id="Group_3764" data-name="Group 3764" opacity="0.8">
        <g id="Group_3763" data-name="Group 3763" opacity="0.2">
          <path id="Path_1929" data-name="Path 1929" d="M457.008,133.368a10.756,10.756,0,1,0,2.418,9.321,10.743,10.743,0,0,0-2.418-9.321Zm.629,8.941a8.919,8.919,0,1,1,.2-1.87A8.967,8.967,0,0,1,457.637,142.309Z" fill="#18bdf7"/>
        </g>
        <path id="Path_1930" data-name="Path 1930" d="M459.426,142.689a10.783,10.783,0,0,1-5.725,7.383l-.816-1.632a8.967,8.967,0,0,0,4.752-6.131Z" fill="#18bdf7" opacity="0.2"/>
        <path id="Path_1931" data-name="Path 1931" d="M457.008,133.368l-1.379,1.2a8.927,8.927,0,0,0-13.105-.392l-1.306-1.28a10.754,10.754,0,0,1,15.79.472Z" fill="#4a63fe" opacity="0.26"/>
      </g>
      <path id="Path_1932" data-name="Path 1932" d="M336.954,323.29l1.64-1.222a10.159,10.159,0,0,0-3.13-3.129l-1.221,1.639a8.064,8.064,0,0,0-2.283-.946l.3-2.026a9.924,9.924,0,0,0-4.427,0l.3,2.026a8.064,8.064,0,0,0-2.283.946l-1.221-1.639a10.17,10.17,0,0,0-3.13,3.129l1.64,1.222a7.988,7.988,0,0,0-.946,2.282l-2.026-.3a9.924,9.924,0,0,0,0,4.427l2.026-.3a8,8,0,0,0,.946,2.282l-1.64,1.221a10.162,10.162,0,0,0,3.13,3.13l1.221-1.639a8.063,8.063,0,0,0,2.283.946l-.3,2.025a9.924,9.924,0,0,0,4.427,0l-.3-2.025a8.063,8.063,0,0,0,2.283-.946l1.221,1.639a10.151,10.151,0,0,0,3.13-3.13l-1.64-1.221a8.031,8.031,0,0,0,.947-2.282l2.025.3a9.924,9.924,0,0,0,0-4.427l-2.025.3A8.019,8.019,0,0,0,336.954,323.29Zm-6.911,9.578a5.379,5.379,0,1,1,5.378-5.379A5.378,5.378,0,0,1,330.043,332.868Z" fill="#00a4d6" opacity="0.2"/>
      <path id="Path_1934" data-name="Path 1934" d="M419.433,121.167A4.167,4.167,0,1,1,415.266,117,4.166,4.166,0,0,1,419.433,121.167Z" fill="none" stroke="#00a4d6" stroke-miterlimit="10" stroke-width="2" opacity="0.1"/>
      <path id="Path_1935" data-name="Path 1935" d="M580.77,136.287a4.167,4.167,0,1,1-4.166-4.167A4.167,4.167,0,0,1,580.77,136.287Z" fill="none" stroke="#00a4d6" stroke-miterlimit="10" stroke-width="0.5" opacity="0.5"/>
      <circle id="Ellipse_21" data-name="Ellipse 21" cx="6.515" cy="6.515" r="6.515" transform="translate(463.698 160.507)" fill="none" stroke="#00a4d6" stroke-miterlimit="10" stroke-width="3.127" opacity="0.1"/>
      <path id="Path_1936" data-name="Path 1936" d="M662.486,264.26a6.516,6.516,0,1,1-6.516-6.515A6.516,6.516,0,0,1,662.486,264.26Z" fill="none" stroke="#00a4d6" stroke-miterlimit="10" stroke-width="3.127" opacity="0.1"/>
    </g>
    <g id="Group_3774" data-name="Group 3774">
      <g id="Group_3766" data-name="Group 3766">
        <path id="Path_1937" data-name="Path 1937" d="M622.83,186.78V343.17a6.743,6.743,0,0,1-6.74,6.74h-258a6.737,6.737,0,0,1-6.74-6.74V186.78a6.737,6.737,0,0,1,6.74-6.74h258A6.743,6.743,0,0,1,622.83,186.78Z" fill="#003584"/>
        <path id="Path_1938" data-name="Path 1938" d="M514.705,378.726h-55.24l6-23.59,1.36-5.35,2.64-10.36h35.24l2.64,10.36,1.36,5.35Z" fill="#003584"/>
        <path id="Path_1939" data-name="Path 1939" d="M508.705,355.136h-43.24l1.36-5.35h40.52Z" fill="#0c2e67"/>
        <path id="Path_1940" data-name="Path 1940" d="M535.9,385.244H438.264A4.242,4.242,0,0,1,434.022,381h0a4.243,4.243,0,0,1,4.242-4.243H535.9A4.243,4.243,0,0,1,540.145,381h0A4.242,4.242,0,0,1,535.9,385.244Z" fill="#0c2e67"/>
        <rect id="Rectangle_392" data-name="Rectangle 392" width="271.987" height="118.667" transform="translate(350.837 204.183)" fill="#60f4df" opacity="0.2"/>
        <path id="Path_1941" data-name="Path 1941" d="M487.071,342.2h0a6.278,6.278,0,0,1-6.259-6.259h0a6.277,6.277,0,0,1,6.259-6.259h0a6.277,6.277,0,0,1,6.259,6.259h0A6.278,6.278,0,0,1,487.071,342.2Z" fill="#0c2e67"/>
      </g>
      <g id="Group_3824" data-name="Group 3824" transform="translate(-27.188 12.111)">
        <rect id="Rectangle_437" data-name="Rectangle 437" width="81.134" height="65.77" rx="1.814" transform="translate(389.098 197.889)" fill="#96abcf" opacity="0.33"/>
        <g id="Group_3823" data-name="Group 3823" transform="translate(401.298 205.395)">
          <path id="Path_2063" data-name="Path 2063" d="M400.208,204.287H394.8a.6.6,0,0,1-.52-.655h0a.6.6,0,0,1,.52-.655h5.406a.6.6,0,0,1,.52.655h0A.6.6,0,0,1,400.208,204.287Z" transform="translate(-394.282 -202.977)" fill="#0cf"/>
          <path id="Path_2064" data-name="Path 2064" d="M429.1,204.287H398.181a.6.6,0,0,1-.52-.655h0a.6.6,0,0,1,.52-.655H429.1a.6.6,0,0,1,.52.655h0A.6.6,0,0,1,429.1,204.287Z" transform="translate(-389.709 -202.977)" fill="#0cf"/>
          <path id="Path_2065" data-name="Path 2065" d="M408.044,206.123h-9.863a.6.6,0,0,1-.52-.655h0a.6.6,0,0,1,.52-.655h9.863a.6.6,0,0,1,.52.655h0A.6.6,0,0,1,408.044,206.123Z" transform="translate(-389.709 -202.105)" fill="#ff56a9"/>
          <path id="Path_2066" data-name="Path 2066" d="M417.442,206.123H403.225a.6.6,0,0,1-.52-.655h0a.6.6,0,0,1,.52-.655h14.217a.6.6,0,0,1,.52.655h0A.6.6,0,0,1,417.442,206.123Z" transform="translate(-382.882 -202.105)" fill="#e3eaff"/>
          <path id="Path_2067" data-name="Path 2067" d="M429.1,215.061H398.181a.6.6,0,0,1-.52-.655h0a.6.6,0,0,1,.52-.655H429.1a.6.6,0,0,1,.52.655h0A.6.6,0,0,1,429.1,215.061Z" transform="translate(-389.709 -197.857)" fill="#e3eaff"/>
          <path id="Path_2068" data-name="Path 2068" d="M400.208,216.9H394.8a.6.6,0,0,1-.52-.655h0a.6.6,0,0,1,.52-.655h5.406a.6.6,0,0,1,.52.655h0A.6.6,0,0,1,400.208,216.9Z" transform="translate(-394.282 -196.985)" fill="#0cf"/>
          <path id="Path_2069" data-name="Path 2069" d="M408.044,216.9h-9.863a.6.6,0,0,1-.52-.655h0a.6.6,0,0,1,.52-.655h9.863a.6.6,0,0,1,.52.655h0A.6.6,0,0,1,408.044,216.9Z" transform="translate(-389.709 -196.985)" fill="#e3eaff"/>
          <path id="Path_2070" data-name="Path 2070" d="M417.442,216.9H403.225a.6.6,0,0,1-.52-.655h0a.6.6,0,0,1,.52-.655h14.217a.6.6,0,0,1,.52.655h0A.6.6,0,0,1,417.442,216.9Z" transform="translate(-382.882 -196.985)" fill="#ff56a9"/>
          <path id="Path_2071" data-name="Path 2071" d="M436.772,207.959H398.181a.6.6,0,0,1-.52-.655h0a.6.6,0,0,1,.52-.656h38.591a.6.6,0,0,1,.52.656h0A.6.6,0,0,1,436.772,207.959Z" transform="translate(-389.709 -201.233)" fill="#ff56a9"/>
          <rect id="Rectangle_438" data-name="Rectangle 438" width="10.086" height="1.31" rx="0.234" transform="translate(29.439 8.124)" fill="#0cf"/>
          <path id="Path_2072" data-name="Path 2072" d="M411,209.8H398.181a.6.6,0,0,1-.52-.656h0a.6.6,0,0,1,.52-.655H411a.6.6,0,0,1,.52.655h0A.6.6,0,0,1,411,209.8Z" transform="translate(-389.709 -200.36)" fill="#e3eaff"/>
          <path id="Path_2073" data-name="Path 2073" d="M409.45,209.8h-5.083a.6.6,0,0,1-.52-.656h0a.6.6,0,0,1,.52-.655h5.083a.6.6,0,0,1,.52.655h0A.6.6,0,0,1,409.45,209.8Z" transform="translate(-381.337 -200.36)" fill="#0cf"/>
          <path id="Path_2074" data-name="Path 2074" d="M400.208,211.569H394.8a.6.6,0,0,1-.52-.655h0a.6.6,0,0,1,.52-.655h5.406a.6.6,0,0,1,.52.655h0A.6.6,0,0,1,400.208,211.569Z" transform="translate(-394.282 -199.517)" fill="#e3eaff"/>
          <path id="Path_2075" data-name="Path 2075" d="M436.772,211.569H398.181a.6.6,0,0,1-.52-.655h0a.6.6,0,0,1,.52-.655h38.591a.6.6,0,0,1,.52.655h0A.6.6,0,0,1,436.772,211.569Z" transform="translate(-389.709 -199.517)" fill="#e3eaff"/>
          <path id="Path_2076" data-name="Path 2076" d="M400.208,218.6H394.8a.6.6,0,0,1-.52-.655h0a.6.6,0,0,1,.52-.655h5.406a.6.6,0,0,1,.52.655h0A.6.6,0,0,1,400.208,218.6Z" transform="translate(-394.282 -196.177)" fill="#e3eaff"/>
          <rect id="Rectangle_439" data-name="Rectangle 439" width="13.954" height="1.31" rx="0.275" transform="translate(29.439 21.11)" fill="#e3eaff"/>
          <path id="Path_2077" data-name="Path 2077" d="M411,218.6H398.181a.6.6,0,0,1-.52-.655h0a.6.6,0,0,1,.52-.655H411a.6.6,0,0,1,.52.655h0A.6.6,0,0,1,411,218.6Z" transform="translate(-389.709 -196.177)" fill="#e3eaff"/>
          <path id="Path_2078" data-name="Path 2078" d="M409.45,218.6h-5.083a.6.6,0,0,1-.52-.655h0a.6.6,0,0,1,.52-.655h5.083a.6.6,0,0,1,.52.655h0A.6.6,0,0,1,409.45,218.6Z" transform="translate(-381.337 -196.177)" fill="#e3eaff"/>
          <path id="Path_2079" data-name="Path 2079" d="M400.208,220.372H394.8a.6.6,0,0,1-.52-.655h0a.6.6,0,0,1,.52-.655h5.406a.6.6,0,0,1,.52.655h0A.6.6,0,0,1,400.208,220.372Z" transform="translate(-394.282 -195.334)" fill="#ffc359"/>
          <path id="Path_2080" data-name="Path 2080" d="M404.862,220.372h-6.681a.6.6,0,0,1-.52-.655h0a.6.6,0,0,1,.52-.655h6.681a.6.6,0,0,1,.52.655h0A.6.6,0,0,1,404.862,220.372Z" transform="translate(-389.709 -195.334)" fill="#0cf"/>
          <path id="Path_2081" data-name="Path 2081" d="M394.8,213.4a.6.6,0,0,1-.52-.655h0a.6.6,0,0,1,.52-.655h5.406a.6.6,0,0,1,.52.655h0a.6.6,0,0,1-.52.655" transform="translate(-394.282 -198.644)" fill="#0cf"/>
          <rect id="Rectangle_440" data-name="Rectangle 440" width="15.767" height="1.31" rx="0.292" transform="translate(29.439 13.45)" fill="#e3eaff"/>
          <path id="Path_2082" data-name="Path 2082" d="M411,213.4H398.181a.6.6,0,0,1-.52-.655h0a.6.6,0,0,1,.52-.655H411a.6.6,0,0,1,.52.655h0A.6.6,0,0,1,411,213.4Z" transform="translate(-389.709 -198.644)" fill="#ffc359"/>
          <path id="Path_2083" data-name="Path 2083" d="M409.45,213.4h-5.083a.6.6,0,0,1-.52-.655h0a.6.6,0,0,1,.52-.655h5.083a.6.6,0,0,1,.52.655h0A.6.6,0,0,1,409.45,213.4Z" transform="translate(-381.337 -198.644)" fill="#ffc359"/>
          <path id="Path_2084" data-name="Path 2084" d="M429.1,222.259H398.181a.6.6,0,0,1-.52-.655h0a.6.6,0,0,1,.52-.655H429.1a.6.6,0,0,1,.52.655h0A.6.6,0,0,1,429.1,222.259Z" transform="translate(-389.709 -194.437)" fill="#e3eaff"/>
          <path id="Path_2085" data-name="Path 2085" d="M408.044,224.095h-9.863a.6.6,0,0,1-.52-.655h0a.6.6,0,0,1,.52-.655h9.863a.6.6,0,0,1,.52.655h0A.6.6,0,0,1,408.044,224.095Z" transform="translate(-389.709 -193.565)" fill="#e3eaff"/>
          <path id="Path_2086" data-name="Path 2086" d="M417.442,224.095H403.225a.6.6,0,0,1-.52-.655h0a.6.6,0,0,1,.52-.655h14.217a.6.6,0,0,1,.52.655h0A.6.6,0,0,1,417.442,224.095Z" transform="translate(-382.882 -193.565)" fill="#e3eaff"/>
          <path id="Path_2087" data-name="Path 2087" d="M429.1,233.033H398.181a.6.6,0,0,1-.52-.655h0a.6.6,0,0,1,.52-.655H429.1a.6.6,0,0,1,.52.655h0A.6.6,0,0,1,429.1,233.033Z" transform="translate(-389.709 -189.318)" fill="#e3eaff"/>
          <path id="Path_2088" data-name="Path 2088" d="M400.208,234.869H394.8a.6.6,0,0,1-.52-.655h0a.6.6,0,0,1,.52-.655h5.406a.6.6,0,0,1,.52.655h0A.6.6,0,0,1,400.208,234.869Z" transform="translate(-394.282 -188.445)" fill="#ff56a9"/>
          <path id="Path_2089" data-name="Path 2089" d="M408.044,234.869h-9.863a.6.6,0,0,1-.52-.655h0a.6.6,0,0,1,.52-.655h9.863a.6.6,0,0,1,.52.655h0A.6.6,0,0,1,408.044,234.869Z" transform="translate(-389.709 -188.445)" fill="#0cf"/>
          <path id="Path_2090" data-name="Path 2090" d="M417.442,234.869H403.225a.6.6,0,0,1-.52-.655h0a.6.6,0,0,1,.52-.655h14.217a.6.6,0,0,1,.52.655h0A.6.6,0,0,1,417.442,234.869Z" transform="translate(-382.882 -188.445)" fill="#e3eaff"/>
          <path id="Path_2091" data-name="Path 2091" d="M400.208,225.931H394.8a.6.6,0,0,1-.52-.655h0a.6.6,0,0,1,.52-.655h5.406a.6.6,0,0,1,.52.655h0A.6.6,0,0,1,400.208,225.931Z" transform="translate(-394.282 -192.692)" fill="#ff56a9"/>
          <rect id="Rectangle_441" data-name="Rectangle 441" width="28.754" height="1.31" rx="0.267" transform="translate(7.951 31.928)" fill="#ff56a9"/>
          <path id="Path_2092" data-name="Path 2092" d="M400.208,227.767H394.8a.6.6,0,0,1-.52-.656h0a.6.6,0,0,1,.52-.655h5.406a.6.6,0,0,1,.52.655h0A.6.6,0,0,1,400.208,227.767Z" transform="translate(-394.282 -191.82)" fill="#e3eaff"/>
          <path id="Path_2093" data-name="Path 2093" d="M411,227.767H398.181a.6.6,0,0,1-.52-.656h0a.6.6,0,0,1,.52-.655H411a.6.6,0,0,1,.52.655h0A.6.6,0,0,1,411,227.767Z" transform="translate(-389.709 -191.82)" fill="#e3eaff"/>
          <path id="Path_2094" data-name="Path 2094" d="M409.45,227.767h-5.083a.6.6,0,0,1-.52-.656h0a.6.6,0,0,1,.52-.655h5.083a.6.6,0,0,1,.52.655h0A.6.6,0,0,1,409.45,227.767Z" transform="translate(-381.337 -191.82)" fill="#e3eaff"/>
          <path id="Path_2095" data-name="Path 2095" d="M400.208,229.541H394.8a.6.6,0,0,1-.52-.655h0a.6.6,0,0,1,.52-.655h5.406a.6.6,0,0,1,.52.655h0A.6.6,0,0,1,400.208,229.541Z" transform="translate(-394.282 -190.977)" fill="#e3eaff"/>
          <path id="Rectangle_442" data-name="Rectangle 442" d="M.3,0H35.908a.3.3,0,0,1,.3.3v.711a.3.3,0,0,1-.3.3H.3a.3.3,0,0,1-.3-.3V.3A.3.3,0,0,1,.3,0Z" transform="translate(7.951 37.254)" fill="#e3eaff"/>
          <path id="Path_2096" data-name="Path 2096" d="M400.208,236.569H394.8a.6.6,0,0,1-.52-.655h0a.6.6,0,0,1,.52-.655h5.406a.6.6,0,0,1,.52.655h0A.6.6,0,0,1,400.208,236.569Z" transform="translate(-394.282 -187.637)" fill="#e3eaff"/>
          <path id="Path_2097" data-name="Path 2097" d="M424.376,236.569H407.311a.6.6,0,0,1-.52-.655h0a.6.6,0,0,1,.52-.655h17.065a.6.6,0,0,1,.52.655h0A.6.6,0,0,1,424.376,236.569Z" transform="translate(-377.352 -187.637)" fill="#e3eaff"/>
          <path id="Path_2098" data-name="Path 2098" d="M411,236.569H398.181a.6.6,0,0,1-.52-.655h0a.6.6,0,0,1,.52-.655H411a.6.6,0,0,1,.52.655h0A.6.6,0,0,1,411,236.569Z" transform="translate(-389.709 -187.637)" fill="#e3eaff"/>
          <path id="Path_2099" data-name="Path 2099" d="M409.45,236.569h-5.083a.6.6,0,0,1-.52-.655h0a.6.6,0,0,1,.52-.655h5.083a.6.6,0,0,1,.52.655h0A.6.6,0,0,1,409.45,236.569Z" transform="translate(-381.337 -187.637)" fill="#e3eaff"/>
          <rect id="Rectangle_443" data-name="Rectangle 443" width="23.919" height="1.31" rx="0.243" transform="translate(7.951 50.24)" fill="#ffc359"/>
          <rect id="Rectangle_444" data-name="Rectangle 444" width="16.693" height="1.31" rx="0.301" transform="translate(29.439 39.962)" fill="#ff56a9"/>
          <path id="Path_2100" data-name="Path 2100" d="M411,231.377H398.181a.6.6,0,0,1-.52-.655h0a.6.6,0,0,1,.52-.655H411a.6.6,0,0,1,.52.655h0A.6.6,0,0,1,411,231.377Z" transform="translate(-389.709 -190.105)" fill="#ffc359"/>
          <path id="Path_2101" data-name="Path 2101" d="M409.45,231.377h-5.083a.6.6,0,0,1-.52-.655h0a.6.6,0,0,1,.52-.655h5.083a.6.6,0,0,1,.52.655h0A.6.6,0,0,1,409.45,231.377Z" transform="translate(-381.337 -190.105)" fill="#ffc359"/>
        </g>
      </g>
      <path id="Path_1933" data-name="Path 1933" d="M651.14,169.4l2.458-1.831a15.235,15.235,0,0,0-4.692-4.692l-1.831,2.458a12.022,12.022,0,0,0-3.422-1.419l.444-3.037a14.871,14.871,0,0,0-6.637,0l.444,3.037a12.01,12.01,0,0,0-3.422,1.419l-1.831-2.458a15.237,15.237,0,0,0-4.693,4.692l2.459,1.831A12.012,12.012,0,0,0,629,172.825l-3.037-.444a14.871,14.871,0,0,0,0,6.637l3.037-.444A12.024,12.024,0,0,0,630.417,182l-2.459,1.831a15.248,15.248,0,0,0,4.693,4.692l1.831-2.458a12.038,12.038,0,0,0,3.422,1.419l-.444,3.037a14.909,14.909,0,0,0,6.637,0l-.444-3.037a12.051,12.051,0,0,0,3.422-1.419l1.831,2.458a15.245,15.245,0,0,0,4.692-4.692L651.14,182a12.052,12.052,0,0,0,1.419-3.422l3.037.444a14.911,14.911,0,0,0,0-6.637l-3.037.444A12.04,12.04,0,0,0,651.14,169.4Zm-10.362,14.36a8.063,8.063,0,1,1,8.064-8.064A8.063,8.063,0,0,1,640.778,183.763Z" transform="translate(-223 55)" fill="#12afa0"/>
    </g>
    <g id="Group_3825" data-name="Group 3825" transform="translate(60.812 13.111)">
      <rect id="Rectangle_437-2" data-name="Rectangle 437" width="60.5" height="49.043" rx="1.814" transform="translate(389.098 197.889)" fill="#96abcf" opacity="0.33"/>
      <g id="Group_3823-2" data-name="Group 3823" transform="translate(398.195 203.486)">
        <path id="Path_2063-2" data-name="Path 2063" d="M398.7,203.954H394.67a.447.447,0,0,1-.388-.488h0a.447.447,0,0,1,.388-.488H398.7a.447.447,0,0,1,.388.488h0A.447.447,0,0,1,398.7,203.954Z" transform="translate(-394.282 -202.977)" fill="#0cf"/>
        <path id="Path_2064-2" data-name="Path 2064" d="M421.106,203.954H398.049a.447.447,0,0,1-.388-.488h0a.447.447,0,0,1,.388-.488h23.057a.447.447,0,0,1,.388.488h0A.447.447,0,0,1,421.106,203.954Z" transform="translate(-391.731 -202.977)" fill="#0cf"/>
        <path id="Path_2065-2" data-name="Path 2065" d="M405.4,205.79h-7.355a.447.447,0,0,1-.388-.488h0a.446.446,0,0,1,.388-.488H405.4a.446.446,0,0,1,.388.488h0A.447.447,0,0,1,405.4,205.79Z" transform="translate(-391.731 -202.793)" fill="#ff56a9"/>
        <path id="Path_2066-2" data-name="Path 2066" d="M413.694,205.79h-10.6a.447.447,0,0,1-.388-.488h0a.446.446,0,0,1,.388-.488h10.6a.446.446,0,0,1,.388.488h0A.447.447,0,0,1,413.694,205.79Z" transform="translate(-387.924 -202.793)" fill="#e3eaff"/>
        <path id="Path_2067-2" data-name="Path 2067" d="M421.106,214.728H398.049a.447.447,0,0,1-.388-.488h0a.447.447,0,0,1,.388-.488h23.057a.447.447,0,0,1,.388.488h0A.447.447,0,0,1,421.106,214.728Z" transform="translate(-391.731 -201.9)" fill="#e3eaff"/>
        <path id="Path_2068-2" data-name="Path 2068" d="M398.7,216.564H394.67a.447.447,0,0,1-.388-.488h0a.447.447,0,0,1,.388-.488H398.7a.447.447,0,0,1,.388.488h0A.447.447,0,0,1,398.7,216.564Z" transform="translate(-394.282 -201.716)" fill="#0cf"/>
        <path id="Path_2069-2" data-name="Path 2069" d="M405.4,216.564h-7.355a.447.447,0,0,1-.388-.488h0a.447.447,0,0,1,.388-.488H405.4a.447.447,0,0,1,.388.488h0A.447.447,0,0,1,405.4,216.564Z" transform="translate(-391.731 -201.716)" fill="#e3eaff"/>
        <path id="Path_2070-2" data-name="Path 2070" d="M413.694,216.564h-10.6a.447.447,0,0,1-.388-.488h0a.447.447,0,0,1,.388-.488h10.6a.447.447,0,0,1,.388.488h0A.447.447,0,0,1,413.694,216.564Z" transform="translate(-387.924 -201.716)" fill="#ff56a9"/>
        <path id="Path_2071-2" data-name="Path 2071" d="M426.825,207.626H398.049a.447.447,0,0,1-.388-.488h0a.448.448,0,0,1,.388-.49h28.776a.448.448,0,0,1,.388.49h0A.447.447,0,0,1,426.825,207.626Z" transform="translate(-391.731 -202.61)" fill="#ff56a9"/>
        <rect id="Rectangle_438-2" data-name="Rectangle 438" width="7.521" height="0.977" rx="0.234" transform="translate(21.952 6.058)" fill="#0cf"/>
        <path id="Path_2072-2" data-name="Path 2072" d="M407.608,209.462h-9.559a.448.448,0,0,1-.388-.49h0a.447.447,0,0,1,.388-.488h9.559a.447.447,0,0,1,.388.488h0A.448.448,0,0,1,407.608,209.462Z" transform="translate(-391.731 -202.426)" fill="#e3eaff"/>
        <path id="Path_2073-2" data-name="Path 2073" d="M408.025,209.462h-3.79a.448.448,0,0,1-.388-.49h0a.447.447,0,0,1,.388-.488h3.79a.447.447,0,0,1,.388.488h0A.448.448,0,0,1,408.025,209.462Z" transform="translate(-387.062 -202.426)" fill="#0cf"/>
        <path id="Path_2074-2" data-name="Path 2074" d="M398.7,211.236H394.67a.447.447,0,0,1-.388-.488h0a.447.447,0,0,1,.388-.488H398.7a.447.447,0,0,1,.388.488h0A.447.447,0,0,1,398.7,211.236Z" transform="translate(-394.282 -202.249)" fill="#e3eaff"/>
        <path id="Path_2075-2" data-name="Path 2075" d="M426.825,211.236H398.049a.447.447,0,0,1-.388-.488h0a.447.447,0,0,1,.388-.488h28.776a.447.447,0,0,1,.388.488h0A.447.447,0,0,1,426.825,211.236Z" transform="translate(-391.731 -202.249)" fill="#e3eaff"/>
        <path id="Path_2076-2" data-name="Path 2076" d="M398.7,218.264H394.67a.447.447,0,0,1-.388-.488h0a.447.447,0,0,1,.388-.488H398.7a.447.447,0,0,1,.388.488h0A.447.447,0,0,1,398.7,218.264Z" transform="translate(-394.282 -201.546)" fill="#e3eaff"/>
        <rect id="Rectangle_439-2" data-name="Rectangle 439" width="10.405" height="0.977" rx="0.275" transform="translate(21.952 15.741)" fill="#e3eaff"/>
        <path id="Path_2077-2" data-name="Path 2077" d="M407.608,218.264h-9.559a.447.447,0,0,1-.388-.488h0a.447.447,0,0,1,.388-.488h9.559a.447.447,0,0,1,.388.488h0A.447.447,0,0,1,407.608,218.264Z" transform="translate(-391.731 -201.546)" fill="#e3eaff"/>
        <path id="Path_2078-2" data-name="Path 2078" d="M408.025,218.264h-3.79a.447.447,0,0,1-.388-.488h0a.447.447,0,0,1,.388-.488h3.79a.447.447,0,0,1,.388.488h0A.447.447,0,0,1,408.025,218.264Z" transform="translate(-387.062 -201.546)" fill="#e3eaff"/>
        <path id="Path_2079-2" data-name="Path 2079" d="M398.7,220.039H394.67a.447.447,0,0,1-.388-.488h0a.446.446,0,0,1,.388-.488H398.7a.446.446,0,0,1,.388.488h0A.447.447,0,0,1,398.7,220.039Z" transform="translate(-394.282 -201.368)" fill="#ffc359"/>
        <path id="Path_2080-2" data-name="Path 2080" d="M403.031,220.039h-4.982a.447.447,0,0,1-.388-.488h0a.446.446,0,0,1,.388-.488h4.982a.446.446,0,0,1,.388.488h0A.447.447,0,0,1,403.031,220.039Z" transform="translate(-391.731 -201.368)" fill="#0cf"/>
        <path id="Path_2081-2" data-name="Path 2081" d="M394.67,213.072a.447.447,0,0,1-.388-.488h0a.447.447,0,0,1,.388-.488H398.7a.447.447,0,0,1,.388.488h0a.447.447,0,0,1-.388.488" transform="translate(-394.282 -202.065)" fill="#0cf"/>
        <rect id="Rectangle_440-2" data-name="Rectangle 440" width="11.757" height="0.977" rx="0.292" transform="translate(21.952 10.029)" fill="#e3eaff"/>
        <path id="Path_2082-2" data-name="Path 2082" d="M407.608,213.072h-9.559a.447.447,0,0,1-.388-.488h0a.447.447,0,0,1,.388-.488h9.559a.447.447,0,0,1,.388.488h0A.447.447,0,0,1,407.608,213.072Z" transform="translate(-391.731 -202.065)" fill="#ffc359"/>
        <path id="Path_2083-2" data-name="Path 2083" d="M408.025,213.072h-3.79a.447.447,0,0,1-.388-.488h0a.447.447,0,0,1,.388-.488h3.79a.447.447,0,0,1,.388.488h0A.447.447,0,0,1,408.025,213.072Z" transform="translate(-387.062 -202.065)" fill="#ffc359"/>
        <path id="Path_2084-2" data-name="Path 2084" d="M421.106,221.926H398.049a.447.447,0,0,1-.388-.488h0a.447.447,0,0,1,.388-.488h23.057a.447.447,0,0,1,.388.488h0A.447.447,0,0,1,421.106,221.926Z" transform="translate(-391.731 -201.18)" fill="#e3eaff"/>
        <path id="Path_2085-2" data-name="Path 2085" d="M405.4,223.762h-7.355a.447.447,0,0,1-.388-.488h0a.447.447,0,0,1,.388-.488H405.4a.447.447,0,0,1,.388.488h0A.447.447,0,0,1,405.4,223.762Z" transform="translate(-391.731 -200.996)" fill="#e3eaff"/>
        <path id="Path_2086-2" data-name="Path 2086" d="M413.694,223.762h-10.6a.447.447,0,0,1-.388-.488h0a.447.447,0,0,1,.388-.488h10.6a.447.447,0,0,1,.388.488h0A.447.447,0,0,1,413.694,223.762Z" transform="translate(-387.924 -200.996)" fill="#e3eaff"/>
        <path id="Path_2087-2" data-name="Path 2087" d="M421.106,232.7H398.049a.446.446,0,0,1-.388-.488h0a.447.447,0,0,1,.388-.488h23.057a.447.447,0,0,1,.388.488h0A.446.446,0,0,1,421.106,232.7Z" transform="translate(-391.731 -200.102)" fill="#e3eaff"/>
        <path id="Path_2088-2" data-name="Path 2088" d="M398.7,234.536H394.67a.447.447,0,0,1-.388-.488h0a.447.447,0,0,1,.388-.488H398.7a.447.447,0,0,1,.388.488h0A.447.447,0,0,1,398.7,234.536Z" transform="translate(-394.282 -199.919)" fill="#ff56a9"/>
        <path id="Path_2089-2" data-name="Path 2089" d="M405.4,234.536h-7.355a.447.447,0,0,1-.388-.488h0a.447.447,0,0,1,.388-.488H405.4a.447.447,0,0,1,.388.488h0A.447.447,0,0,1,405.4,234.536Z" transform="translate(-391.731 -199.919)" fill="#0cf"/>
        <path id="Path_2090-2" data-name="Path 2090" d="M413.694,234.536h-10.6a.447.447,0,0,1-.388-.488h0a.447.447,0,0,1,.388-.488h10.6a.447.447,0,0,1,.388.488h0A.447.447,0,0,1,413.694,234.536Z" transform="translate(-387.924 -199.919)" fill="#e3eaff"/>
        <path id="Path_2091-2" data-name="Path 2091" d="M398.7,225.6H394.67a.447.447,0,0,1-.388-.488h0a.446.446,0,0,1,.388-.488H398.7a.446.446,0,0,1,.388.488h0A.447.447,0,0,1,398.7,225.6Z" transform="translate(-394.282 -200.813)" fill="#ff56a9"/>
        <rect id="Rectangle_441-2" data-name="Rectangle 441" width="21.441" height="0.977" rx="0.267" transform="translate(5.929 23.808)" fill="#ff56a9"/>
        <path id="Path_2092-2" data-name="Path 2092" d="M398.7,227.434H394.67a.448.448,0,0,1-.388-.49h0a.447.447,0,0,1,.388-.488H398.7a.447.447,0,0,1,.388.488h0A.448.448,0,0,1,398.7,227.434Z" transform="translate(-394.282 -200.629)" fill="#e3eaff"/>
        <path id="Path_2093-2" data-name="Path 2093" d="M407.608,227.434h-9.559a.448.448,0,0,1-.388-.49h0a.447.447,0,0,1,.388-.488h9.559a.447.447,0,0,1,.388.488h0A.448.448,0,0,1,407.608,227.434Z" transform="translate(-391.731 -200.629)" fill="#e3eaff"/>
        <path id="Path_2094-2" data-name="Path 2094" d="M408.025,227.434h-3.79a.448.448,0,0,1-.388-.49h0a.447.447,0,0,1,.388-.488h3.79a.447.447,0,0,1,.388.488h0A.448.448,0,0,1,408.025,227.434Z" transform="translate(-387.062 -200.629)" fill="#e3eaff"/>
        <path id="Path_2095-2" data-name="Path 2095" d="M398.7,229.208H394.67a.446.446,0,0,1-.388-.488h0a.447.447,0,0,1,.388-.488H398.7a.447.447,0,0,1,.388.488h0A.446.446,0,0,1,398.7,229.208Z" transform="translate(-394.282 -200.452)" fill="#e3eaff"/>
        <path id="Rectangle_442-2" data-name="Rectangle 442" d="M.3,0H26.7a.3.3,0,0,1,.3.3V.678a.3.3,0,0,1-.3.3H.3a.3.3,0,0,1-.3-.3V.3A.3.3,0,0,1,.3,0Z" transform="translate(5.929 27.779)" fill="#e3eaff"/>
        <path id="Path_2096-2" data-name="Path 2096" d="M398.7,236.236H394.67a.447.447,0,0,1-.388-.488h0a.447.447,0,0,1,.388-.488H398.7a.447.447,0,0,1,.388.488h0A.447.447,0,0,1,398.7,236.236Z" transform="translate(-394.282 -199.749)" fill="#e3eaff"/>
        <path id="Path_2097-2" data-name="Path 2097" d="M419.9,236.236H407.179a.447.447,0,0,1-.388-.488h0a.447.447,0,0,1,.388-.488H419.9a.447.447,0,0,1,.388.488h0A.447.447,0,0,1,419.9,236.236Z" transform="translate(-384.839 -199.749)" fill="#e3eaff"/>
        <path id="Path_2098-2" data-name="Path 2098" d="M407.608,236.236h-9.559a.447.447,0,0,1-.388-.488h0a.447.447,0,0,1,.388-.488h9.559a.447.447,0,0,1,.388.488h0A.447.447,0,0,1,407.608,236.236Z" transform="translate(-391.731 -199.749)" fill="#e3eaff"/>
        <path id="Path_2099-2" data-name="Path 2099" d="M408.025,236.236h-3.79a.447.447,0,0,1-.388-.488h0a.447.447,0,0,1,.388-.488h3.79a.447.447,0,0,1,.388.488h0A.447.447,0,0,1,408.025,236.236Z" transform="translate(-387.062 -199.749)" fill="#e3eaff"/>
        <rect id="Rectangle_443-2" data-name="Rectangle 443" width="17.836" height="0.977" rx="0.243" transform="translate(5.929 37.462)" fill="#ffc359"/>
        <rect id="Rectangle_444-2" data-name="Rectangle 444" width="12.448" height="0.977" rx="0.301" transform="translate(21.952 29.799)" fill="#ff56a9"/>
        <path id="Path_2100-2" data-name="Path 2100" d="M407.608,231.044h-9.559a.447.447,0,0,1-.388-.488h0a.447.447,0,0,1,.388-.488h9.559a.447.447,0,0,1,.388.488h0A.447.447,0,0,1,407.608,231.044Z" transform="translate(-391.731 -200.268)" fill="#ffc359"/>
        <path id="Path_2101-2" data-name="Path 2101" d="M408.025,231.044h-3.79a.447.447,0,0,1-.388-.488h0a.447.447,0,0,1,.388-.488h3.79a.447.447,0,0,1,.388.488h0A.447.447,0,0,1,408.025,231.044Z" transform="translate(-387.062 -200.268)" fill="#ffc359"/>
      </g>
    </g>
    <g id="Group_3832" data-name="Group 3832" transform="translate(-1 -1)">
      <g id="Group_3799" data-name="Group 3799">
        <path id="Path_2037" data-name="Path 2037" d="M651.358,384.557c0,1.019-7.343,1.836-16.406,1.836s-16.406-.817-16.406-1.836c0-.7,3.5-1.3,8.66-1.613l.265,1a.956.956,0,0,0,.923.711h12.055a.979.979,0,0,0,.934-.711l.276-1.062C647.379,383.167,651.358,383.814,651.358,384.557Z" fill="#00a4d6"/>
      </g>
      <path id="Path_2038" data-name="Path 2038" d="M628.389,362.755s-.563-5.871-8.278-8.752-13.193.54-13.193.54.756-7.076,6.857-6.755,7.337,4.256,7.337,4.256,3.308-3.445,6.207-.892c2.406,2.12,2.02,6.328,2.02,6.328s2.283.282,1.953,3.918a8.966,8.966,0,0,1-.2,1.253" fill="#61c5f2"/>
      <path id="Path_2039" data-name="Path 2039" d="M628.389,362.755s-.563-5.871-8.278-8.752-13.193.54-13.193.54.756-7.076,6.857-6.755,7.337,4.256,7.337,4.256,3.308-3.445,6.207-.892c2.406,2.12,2.02,6.328,2.02,6.328s2.283.282,1.953,3.918a8.966,8.966,0,0,1-.2,1.253" opacity="0.58" fill="url(#linear-gradient-3)"/>
      <g id="Group_3806" data-name="Group 3806">
        <g id="Group_3800" data-name="Group 3800">
          <path id="Path_2040" data-name="Path 2040" d="M632.681,362.7c-.086-18.335-9.3-26.495-9.389-26.576l.278-.321c.094.081,9.448,8.354,9.536,26.9Z" fill="#39a7d8"/>
        </g>
        <g id="Group_3801" data-name="Group 3801">
          <path id="Path_2041" data-name="Path 2041" d="M623.817,336.315a4.967,4.967,0,0,1-3.075-.7,1.354,1.354,0,0,1,1.676-2.126A4.743,4.743,0,0,1,623.817,336.315Z" fill="#39a7d8"/>
        </g>
        <g id="Group_3802" data-name="Group 3802">
          <path id="Path_2042" data-name="Path 2042" d="M624.571,337.059a4.97,4.97,0,0,1-1.272,2.887,1.354,1.354,0,1,1-1.77-2.05A4.746,4.746,0,0,1,624.571,337.059Z" fill="#39a7d8"/>
        </g>
        <g id="Group_3803" data-name="Group 3803">
          <path id="Path_2043" data-name="Path 2043" d="M624.5,337.1a4.968,4.968,0,0,1,1.474-2.79,1.354,1.354,0,0,1,1.619,2.17A4.745,4.745,0,0,1,624.5,337.1Z" fill="#39a7d8"/>
        </g>
        <g id="Group_3804" data-name="Group 3804">
          <path id="Path_2044" data-name="Path 2044" d="M627.339,340.787a4.962,4.962,0,0,1-1.6,2.718,1.354,1.354,0,1,1-1.517-2.243A4.741,4.741,0,0,1,627.339,340.787Z" fill="#39a7d8"/>
        </g>
        <g id="Group_3805" data-name="Group 3805">
          <path id="Path_2045" data-name="Path 2045" d="M627.265,340.822a4.963,4.963,0,0,1,1.79-2.6,1.353,1.353,0,0,1,1.354,2.344A4.738,4.738,0,0,1,627.265,340.822Z" fill="#39a7d8"/>
        </g>
      </g>
      <g id="Group_3821" data-name="Group 3821">
        <g id="Group_3807" data-name="Group 3807">
          <path id="Path_2046" data-name="Path 2046" d="M635.684,362.651c-2.122-24.328,9.1-36.273,9.212-36.392l-.408-.392c-.115.118-11.512,12.232-9.368,36.834Z" fill="#258baf"/>
        </g>
        <g id="Group_3808" data-name="Group 3808">
          <path id="Path_2047" data-name="Path 2047" d="M644.223,326.574a6.618,6.618,0,0,0,3.993-1.3,1.8,1.8,0,0,0-2.483-2.616A6.315,6.315,0,0,0,644.223,326.574Z" fill="#258baf"/>
        </g>
        <g id="Group_3809" data-name="Group 3809">
          <path id="Path_2048" data-name="Path 2048" d="M643.314,327.653a6.616,6.616,0,0,0,2.039,3.674,1.8,1.8,0,0,0,2.1-2.934A6.316,6.316,0,0,0,643.314,327.653Z" fill="#258baf"/>
        </g>
        <g id="Group_3810" data-name="Group 3810">
          <path id="Path_2049" data-name="Path 2049" d="M643.413,327.7a6.611,6.611,0,0,0-2.3-3.519,1.8,1.8,0,1,0-1.883,3.075A6.315,6.315,0,0,0,643.413,327.7Z" fill="#258baf"/>
        </g>
        <g id="Group_3811" data-name="Group 3811">
          <path id="Path_2050" data-name="Path 2050" d="M640.1,332.935a6.616,6.616,0,0,0,2.455,3.41,1.8,1.8,0,0,0,1.739-3.16A6.319,6.319,0,0,0,640.1,332.935Z" fill="#258baf"/>
        </g>
        <g id="Group_3812" data-name="Group 3812">
          <path id="Path_2051" data-name="Path 2051" d="M640.2,332.973a6.615,6.615,0,0,0-2.691-3.227,1.8,1.8,0,1,0-1.51,3.275A6.319,6.319,0,0,0,640.2,332.973Z" fill="#258baf"/>
        </g>
        <g id="Group_3813" data-name="Group 3813">
          <path id="Path_2052" data-name="Path 2052" d="M637.759,338.847a6.618,6.618,0,0,0,2.752,3.175,1.8,1.8,0,0,0,1.447-3.3A6.316,6.316,0,0,0,637.759,338.847Z" fill="#258baf"/>
        </g>
        <g id="Group_3814" data-name="Group 3814">
          <path id="Path_2053" data-name="Path 2053" d="M637.866,338.875A6.614,6.614,0,0,0,634.9,335.9a1.8,1.8,0,0,0-1.209,3.4A6.318,6.318,0,0,0,637.866,338.875Z" fill="#258baf"/>
        </g>
        <g id="Group_3815" data-name="Group 3815">
          <path id="Path_2054" data-name="Path 2054" d="M636.143,344.59a6.616,6.616,0,0,0,3.243,2.671,1.8,1.8,0,1,0,.876-3.5A6.315,6.315,0,0,0,636.143,344.59Z" fill="#258baf"/>
        </g>
        <g id="Group_3816" data-name="Group 3816">
          <path id="Path_2055" data-name="Path 2055" d="M636.253,344.6a6.614,6.614,0,0,0-3.425-2.435,1.8,1.8,0,0,0-.625,3.552A6.32,6.32,0,0,0,636.253,344.6Z" fill="#258baf"/>
        </g>
        <g id="Group_3817" data-name="Group 3817">
          <path id="Path_2056" data-name="Path 2056" d="M635.345,350.53a6.614,6.614,0,0,0,3.481,2.353,1.8,1.8,0,1,0,.542-3.566A6.321,6.321,0,0,0,635.345,350.53Z" fill="#258baf"/>
        </g>
        <g id="Group_3818" data-name="Group 3818">
          <path id="Path_2057" data-name="Path 2057" d="M635.456,350.53a6.621,6.621,0,0,0-3.64-2.1,1.8,1.8,0,0,0-.287,3.6A6.318,6.318,0,0,0,635.456,350.53Z" fill="#258baf"/>
        </g>
        <g id="Group_3819" data-name="Group 3819">
          <path id="Path_2058" data-name="Path 2058" d="M635.089,357.71a6.619,6.619,0,0,0,3.481,2.353,1.8,1.8,0,0,0,.541-3.566A6.317,6.317,0,0,0,635.089,357.71Z" fill="#258baf"/>
        </g>
        <g id="Group_3820" data-name="Group 3820">
          <path id="Path_2059" data-name="Path 2059" d="M635.2,357.709a6.612,6.612,0,0,0-3.639-2.1,1.8,1.8,0,0,0-.287,3.6A6.321,6.321,0,0,0,635.2,357.709Z" fill="#258baf"/>
        </g>
      </g>
      <path id="Path_2060" data-name="Path 2060" d="M637.424,362.755s-3.381-10.844,3.606-12.524c0,0,.353-14.548,10.7-10.858,0,0,1.5-5.679,7.517-5.414s5.736,6.036,5.736,6.036,5.5.862,5.5,5.461c0,0-26.906-7.584-29.218,17.3" fill="#61c5f2"/>
      <path id="Path_2061" data-name="Path 2061" d="M637.424,362.755s-3.381-10.844,3.606-12.524c0,0,.353-14.548,10.7-10.858,0,0,1.5-5.679,7.517-5.414s5.736,6.036,5.736,6.036,5.5.862,5.5,5.461c0,0-26.906-7.584-29.218,17.3" opacity="0.58" fill="url(#linear-gradient-3)"/>
      <path id="Path_2062" data-name="Path 2062" d="M622.473,365.041l4.994,18.9a.958.958,0,0,0,.926.713h12.061a.959.959,0,0,0,.926-.713l4.994-18.9a1.865,1.865,0,0,0-1.8-2.341h-20.3A1.864,1.864,0,0,0,622.473,365.041Z" fill="none" stroke="#00bfd8" stroke-miterlimit="10" stroke-width="0.531"/>
      <line id="Line_19" data-name="Line 19" x1="3.349" y2="17.722" transform="translate(638.133 364.999)" fill="none" stroke="#00bfd8" stroke-linecap="round" stroke-miterlimit="10" stroke-width="0.531"/>
    </g>
    <g id="Group_3826" data-name="Group 3826" transform="translate(60.812 66.111)">
      <rect id="Rectangle_437-3" data-name="Rectangle 437" width="60.5" height="49.043" rx="1.814" transform="translate(389.098 197.889)" fill="#96abcf" opacity="0.33"/>
      <g id="Group_3823-3" data-name="Group 3823" transform="translate(398.195 203.486)">
        <path id="Path_2063-3" data-name="Path 2063" d="M398.7,203.954H394.67a.447.447,0,0,1-.388-.488h0a.447.447,0,0,1,.388-.488H398.7a.447.447,0,0,1,.388.488h0A.447.447,0,0,1,398.7,203.954Z" transform="translate(-394.282 -202.977)" fill="#0cf"/>
        <path id="Path_2064-3" data-name="Path 2064" d="M421.106,203.954H398.049a.447.447,0,0,1-.388-.488h0a.447.447,0,0,1,.388-.488h23.057a.447.447,0,0,1,.388.488h0A.447.447,0,0,1,421.106,203.954Z" transform="translate(-391.731 -202.977)" fill="#0cf"/>
        <path id="Path_2065-3" data-name="Path 2065" d="M405.4,205.79h-7.355a.447.447,0,0,1-.388-.488h0a.446.446,0,0,1,.388-.488H405.4a.446.446,0,0,1,.388.488h0A.447.447,0,0,1,405.4,205.79Z" transform="translate(-391.731 -202.793)" fill="#ff56a9"/>
        <path id="Path_2066-3" data-name="Path 2066" d="M413.694,205.79h-10.6a.447.447,0,0,1-.388-.488h0a.446.446,0,0,1,.388-.488h10.6a.446.446,0,0,1,.388.488h0A.447.447,0,0,1,413.694,205.79Z" transform="translate(-387.924 -202.793)" fill="#e3eaff"/>
        <path id="Path_2067-3" data-name="Path 2067" d="M421.106,214.728H398.049a.447.447,0,0,1-.388-.488h0a.447.447,0,0,1,.388-.488h23.057a.447.447,0,0,1,.388.488h0A.447.447,0,0,1,421.106,214.728Z" transform="translate(-391.731 -201.9)" fill="#e3eaff"/>
        <path id="Path_2068-3" data-name="Path 2068" d="M398.7,216.564H394.67a.447.447,0,0,1-.388-.488h0a.447.447,0,0,1,.388-.488H398.7a.447.447,0,0,1,.388.488h0A.447.447,0,0,1,398.7,216.564Z" transform="translate(-394.282 -201.716)" fill="#0cf"/>
        <path id="Path_2069-3" data-name="Path 2069" d="M405.4,216.564h-7.355a.447.447,0,0,1-.388-.488h0a.447.447,0,0,1,.388-.488H405.4a.447.447,0,0,1,.388.488h0A.447.447,0,0,1,405.4,216.564Z" transform="translate(-391.731 -201.716)" fill="#e3eaff"/>
        <path id="Path_2070-3" data-name="Path 2070" d="M413.694,216.564h-10.6a.447.447,0,0,1-.388-.488h0a.447.447,0,0,1,.388-.488h10.6a.447.447,0,0,1,.388.488h0A.447.447,0,0,1,413.694,216.564Z" transform="translate(-387.924 -201.716)" fill="#ff56a9"/>
        <path id="Path_2071-3" data-name="Path 2071" d="M426.825,207.626H398.049a.447.447,0,0,1-.388-.488h0a.448.448,0,0,1,.388-.49h28.776a.448.448,0,0,1,.388.49h0A.447.447,0,0,1,426.825,207.626Z" transform="translate(-391.731 -202.61)" fill="#ff56a9"/>
        <rect id="Rectangle_438-3" data-name="Rectangle 438" width="7.521" height="0.977" rx="0.234" transform="translate(21.952 6.058)" fill="#0cf"/>
        <path id="Path_2072-3" data-name="Path 2072" d="M407.608,209.462h-9.559a.448.448,0,0,1-.388-.49h0a.447.447,0,0,1,.388-.488h9.559a.447.447,0,0,1,.388.488h0A.448.448,0,0,1,407.608,209.462Z" transform="translate(-391.731 -202.426)" fill="#e3eaff"/>
        <path id="Path_2073-3" data-name="Path 2073" d="M408.025,209.462h-3.79a.448.448,0,0,1-.388-.49h0a.447.447,0,0,1,.388-.488h3.79a.447.447,0,0,1,.388.488h0A.448.448,0,0,1,408.025,209.462Z" transform="translate(-387.062 -202.426)" fill="#0cf"/>
        <path id="Path_2074-3" data-name="Path 2074" d="M398.7,211.236H394.67a.447.447,0,0,1-.388-.488h0a.447.447,0,0,1,.388-.488H398.7a.447.447,0,0,1,.388.488h0A.447.447,0,0,1,398.7,211.236Z" transform="translate(-394.282 -202.249)" fill="#e3eaff"/>
        <path id="Path_2075-3" data-name="Path 2075" d="M426.825,211.236H398.049a.447.447,0,0,1-.388-.488h0a.447.447,0,0,1,.388-.488h28.776a.447.447,0,0,1,.388.488h0A.447.447,0,0,1,426.825,211.236Z" transform="translate(-391.731 -202.249)" fill="#e3eaff"/>
        <path id="Path_2076-3" data-name="Path 2076" d="M398.7,218.264H394.67a.447.447,0,0,1-.388-.488h0a.447.447,0,0,1,.388-.488H398.7a.447.447,0,0,1,.388.488h0A.447.447,0,0,1,398.7,218.264Z" transform="translate(-394.282 -201.546)" fill="#e3eaff"/>
        <rect id="Rectangle_439-3" data-name="Rectangle 439" width="10.405" height="0.977" rx="0.275" transform="translate(21.952 15.741)" fill="#e3eaff"/>
        <path id="Path_2077-3" data-name="Path 2077" d="M407.608,218.264h-9.559a.447.447,0,0,1-.388-.488h0a.447.447,0,0,1,.388-.488h9.559a.447.447,0,0,1,.388.488h0A.447.447,0,0,1,407.608,218.264Z" transform="translate(-391.731 -201.546)" fill="#e3eaff"/>
        <path id="Path_2078-3" data-name="Path 2078" d="M408.025,218.264h-3.79a.447.447,0,0,1-.388-.488h0a.447.447,0,0,1,.388-.488h3.79a.447.447,0,0,1,.388.488h0A.447.447,0,0,1,408.025,218.264Z" transform="translate(-387.062 -201.546)" fill="#e3eaff"/>
        <path id="Path_2079-3" data-name="Path 2079" d="M398.7,220.039H394.67a.447.447,0,0,1-.388-.488h0a.446.446,0,0,1,.388-.488H398.7a.446.446,0,0,1,.388.488h0A.447.447,0,0,1,398.7,220.039Z" transform="translate(-394.282 -201.368)" fill="#ffc359"/>
        <path id="Path_2080-3" data-name="Path 2080" d="M403.031,220.039h-4.982a.447.447,0,0,1-.388-.488h0a.446.446,0,0,1,.388-.488h4.982a.446.446,0,0,1,.388.488h0A.447.447,0,0,1,403.031,220.039Z" transform="translate(-391.731 -201.368)" fill="#0cf"/>
        <path id="Path_2081-3" data-name="Path 2081" d="M394.67,213.072a.447.447,0,0,1-.388-.488h0a.447.447,0,0,1,.388-.488H398.7a.447.447,0,0,1,.388.488h0a.447.447,0,0,1-.388.488" transform="translate(-394.282 -202.065)" fill="#0cf"/>
        <rect id="Rectangle_440-3" data-name="Rectangle 440" width="11.757" height="0.977" rx="0.292" transform="translate(21.952 10.029)" fill="#e3eaff"/>
        <path id="Path_2082-3" data-name="Path 2082" d="M407.608,213.072h-9.559a.447.447,0,0,1-.388-.488h0a.447.447,0,0,1,.388-.488h9.559a.447.447,0,0,1,.388.488h0A.447.447,0,0,1,407.608,213.072Z" transform="translate(-391.731 -202.065)" fill="#ffc359"/>
        <path id="Path_2083-3" data-name="Path 2083" d="M408.025,213.072h-3.79a.447.447,0,0,1-.388-.488h0a.447.447,0,0,1,.388-.488h3.79a.447.447,0,0,1,.388.488h0A.447.447,0,0,1,408.025,213.072Z" transform="translate(-387.062 -202.065)" fill="#ffc359"/>
        <path id="Path_2084-3" data-name="Path 2084" d="M421.106,221.926H398.049a.447.447,0,0,1-.388-.488h0a.447.447,0,0,1,.388-.488h23.057a.447.447,0,0,1,.388.488h0A.447.447,0,0,1,421.106,221.926Z" transform="translate(-391.731 -201.18)" fill="#e3eaff"/>
        <path id="Path_2085-3" data-name="Path 2085" d="M405.4,223.762h-7.355a.447.447,0,0,1-.388-.488h0a.447.447,0,0,1,.388-.488H405.4a.447.447,0,0,1,.388.488h0A.447.447,0,0,1,405.4,223.762Z" transform="translate(-391.731 -200.996)" fill="#e3eaff"/>
        <path id="Path_2086-3" data-name="Path 2086" d="M413.694,223.762h-10.6a.447.447,0,0,1-.388-.488h0a.447.447,0,0,1,.388-.488h10.6a.447.447,0,0,1,.388.488h0A.447.447,0,0,1,413.694,223.762Z" transform="translate(-387.924 -200.996)" fill="#e3eaff"/>
        <path id="Path_2087-3" data-name="Path 2087" d="M421.106,232.7H398.049a.446.446,0,0,1-.388-.488h0a.447.447,0,0,1,.388-.488h23.057a.447.447,0,0,1,.388.488h0A.446.446,0,0,1,421.106,232.7Z" transform="translate(-391.731 -200.102)" fill="#e3eaff"/>
        <path id="Path_2088-3" data-name="Path 2088" d="M398.7,234.536H394.67a.447.447,0,0,1-.388-.488h0a.447.447,0,0,1,.388-.488H398.7a.447.447,0,0,1,.388.488h0A.447.447,0,0,1,398.7,234.536Z" transform="translate(-394.282 -199.919)" fill="#ff56a9"/>
        <path id="Path_2089-3" data-name="Path 2089" d="M405.4,234.536h-7.355a.447.447,0,0,1-.388-.488h0a.447.447,0,0,1,.388-.488H405.4a.447.447,0,0,1,.388.488h0A.447.447,0,0,1,405.4,234.536Z" transform="translate(-391.731 -199.919)" fill="#0cf"/>
        <path id="Path_2090-3" data-name="Path 2090" d="M413.694,234.536h-10.6a.447.447,0,0,1-.388-.488h0a.447.447,0,0,1,.388-.488h10.6a.447.447,0,0,1,.388.488h0A.447.447,0,0,1,413.694,234.536Z" transform="translate(-387.924 -199.919)" fill="#e3eaff"/>
        <path id="Path_2091-3" data-name="Path 2091" d="M398.7,225.6H394.67a.447.447,0,0,1-.388-.488h0a.446.446,0,0,1,.388-.488H398.7a.446.446,0,0,1,.388.488h0A.447.447,0,0,1,398.7,225.6Z" transform="translate(-394.282 -200.813)" fill="#ff56a9"/>
        <rect id="Rectangle_441-3" data-name="Rectangle 441" width="21.441" height="0.977" rx="0.267" transform="translate(5.929 23.808)" fill="#ff56a9"/>
        <path id="Path_2092-3" data-name="Path 2092" d="M398.7,227.434H394.67a.448.448,0,0,1-.388-.49h0a.447.447,0,0,1,.388-.488H398.7a.447.447,0,0,1,.388.488h0A.448.448,0,0,1,398.7,227.434Z" transform="translate(-394.282 -200.629)" fill="#e3eaff"/>
        <path id="Path_2093-3" data-name="Path 2093" d="M407.608,227.434h-9.559a.448.448,0,0,1-.388-.49h0a.447.447,0,0,1,.388-.488h9.559a.447.447,0,0,1,.388.488h0A.448.448,0,0,1,407.608,227.434Z" transform="translate(-391.731 -200.629)" fill="#e3eaff"/>
        <path id="Path_2094-3" data-name="Path 2094" d="M408.025,227.434h-3.79a.448.448,0,0,1-.388-.49h0a.447.447,0,0,1,.388-.488h3.79a.447.447,0,0,1,.388.488h0A.448.448,0,0,1,408.025,227.434Z" transform="translate(-387.062 -200.629)" fill="#e3eaff"/>
        <path id="Path_2095-3" data-name="Path 2095" d="M398.7,229.208H394.67a.446.446,0,0,1-.388-.488h0a.447.447,0,0,1,.388-.488H398.7a.447.447,0,0,1,.388.488h0A.446.446,0,0,1,398.7,229.208Z" transform="translate(-394.282 -200.452)" fill="#e3eaff"/>
        <path id="Rectangle_442-3" data-name="Rectangle 442" d="M.3,0H26.7a.3.3,0,0,1,.3.3V.678a.3.3,0,0,1-.3.3H.3a.3.3,0,0,1-.3-.3V.3A.3.3,0,0,1,.3,0Z" transform="translate(5.929 27.779)" fill="#e3eaff"/>
        <path id="Path_2096-3" data-name="Path 2096" d="M398.7,236.236H394.67a.447.447,0,0,1-.388-.488h0a.447.447,0,0,1,.388-.488H398.7a.447.447,0,0,1,.388.488h0A.447.447,0,0,1,398.7,236.236Z" transform="translate(-394.282 -199.749)" fill="#e3eaff"/>
        <path id="Path_2097-3" data-name="Path 2097" d="M419.9,236.236H407.179a.447.447,0,0,1-.388-.488h0a.447.447,0,0,1,.388-.488H419.9a.447.447,0,0,1,.388.488h0A.447.447,0,0,1,419.9,236.236Z" transform="translate(-384.839 -199.749)" fill="#e3eaff"/>
        <path id="Path_2098-3" data-name="Path 2098" d="M407.608,236.236h-9.559a.447.447,0,0,1-.388-.488h0a.447.447,0,0,1,.388-.488h9.559a.447.447,0,0,1,.388.488h0A.447.447,0,0,1,407.608,236.236Z" transform="translate(-391.731 -199.749)" fill="#e3eaff"/>
        <path id="Path_2099-3" data-name="Path 2099" d="M408.025,236.236h-3.79a.447.447,0,0,1-.388-.488h0a.447.447,0,0,1,.388-.488h3.79a.447.447,0,0,1,.388.488h0A.447.447,0,0,1,408.025,236.236Z" transform="translate(-387.062 -199.749)" fill="#e3eaff"/>
        <rect id="Rectangle_443-3" data-name="Rectangle 443" width="17.836" height="0.977" rx="0.243" transform="translate(5.929 37.462)" fill="#ffc359"/>
        <rect id="Rectangle_444-3" data-name="Rectangle 444" width="12.448" height="0.977" rx="0.301" transform="translate(21.952 29.799)" fill="#ff56a9"/>
        <path id="Path_2100-3" data-name="Path 2100" d="M407.608,231.044h-9.559a.447.447,0,0,1-.388-.488h0a.447.447,0,0,1,.388-.488h9.559a.447.447,0,0,1,.388.488h0A.447.447,0,0,1,407.608,231.044Z" transform="translate(-391.731 -200.268)" fill="#ffc359"/>
        <path id="Path_2101-3" data-name="Path 2101" d="M408.025,231.044h-3.79a.447.447,0,0,1-.388-.488h0a.447.447,0,0,1,.388-.488h3.79a.447.447,0,0,1,.388.488h0A.447.447,0,0,1,408.025,231.044Z" transform="translate(-387.062 -200.268)" fill="#ffc359"/>
      </g>
    </g>
    <g id="Group_3827" data-name="Group 3827" transform="translate(133.812 15.111)">
      <rect id="Rectangle_437-4" data-name="Rectangle 437" width="60.5" height="49.043" rx="1.814" transform="translate(389.098 197.889)" fill="#96abcf" opacity="0.33"/>
      <g id="Group_3823-4" data-name="Group 3823" transform="translate(398.195 203.486)">
        <path id="Path_2063-4" data-name="Path 2063" d="M398.7,203.954H394.67a.447.447,0,0,1-.388-.488h0a.447.447,0,0,1,.388-.488H398.7a.447.447,0,0,1,.388.488h0A.447.447,0,0,1,398.7,203.954Z" transform="translate(-394.282 -202.977)" fill="#0cf"/>
        <path id="Path_2064-4" data-name="Path 2064" d="M421.106,203.954H398.049a.447.447,0,0,1-.388-.488h0a.447.447,0,0,1,.388-.488h23.057a.447.447,0,0,1,.388.488h0A.447.447,0,0,1,421.106,203.954Z" transform="translate(-391.731 -202.977)" fill="#0cf"/>
        <path id="Path_2065-4" data-name="Path 2065" d="M405.4,205.79h-7.355a.447.447,0,0,1-.388-.488h0a.446.446,0,0,1,.388-.488H405.4a.446.446,0,0,1,.388.488h0A.447.447,0,0,1,405.4,205.79Z" transform="translate(-391.731 -202.793)" fill="#ff56a9"/>
        <path id="Path_2066-4" data-name="Path 2066" d="M413.694,205.79h-10.6a.447.447,0,0,1-.388-.488h0a.446.446,0,0,1,.388-.488h10.6a.446.446,0,0,1,.388.488h0A.447.447,0,0,1,413.694,205.79Z" transform="translate(-387.924 -202.793)" fill="#e3eaff"/>
        <path id="Path_2067-4" data-name="Path 2067" d="M421.106,214.728H398.049a.447.447,0,0,1-.388-.488h0a.447.447,0,0,1,.388-.488h23.057a.447.447,0,0,1,.388.488h0A.447.447,0,0,1,421.106,214.728Z" transform="translate(-391.731 -201.9)" fill="#e3eaff"/>
        <path id="Path_2068-4" data-name="Path 2068" d="M398.7,216.564H394.67a.447.447,0,0,1-.388-.488h0a.447.447,0,0,1,.388-.488H398.7a.447.447,0,0,1,.388.488h0A.447.447,0,0,1,398.7,216.564Z" transform="translate(-394.282 -201.716)" fill="#0cf"/>
        <path id="Path_2069-4" data-name="Path 2069" d="M405.4,216.564h-7.355a.447.447,0,0,1-.388-.488h0a.447.447,0,0,1,.388-.488H405.4a.447.447,0,0,1,.388.488h0A.447.447,0,0,1,405.4,216.564Z" transform="translate(-391.731 -201.716)" fill="#e3eaff"/>
        <path id="Path_2070-4" data-name="Path 2070" d="M413.694,216.564h-10.6a.447.447,0,0,1-.388-.488h0a.447.447,0,0,1,.388-.488h10.6a.447.447,0,0,1,.388.488h0A.447.447,0,0,1,413.694,216.564Z" transform="translate(-387.924 -201.716)" fill="#ff56a9"/>
        <path id="Path_2071-4" data-name="Path 2071" d="M426.825,207.626H398.049a.447.447,0,0,1-.388-.488h0a.448.448,0,0,1,.388-.49h28.776a.448.448,0,0,1,.388.49h0A.447.447,0,0,1,426.825,207.626Z" transform="translate(-391.731 -202.61)" fill="#ff56a9"/>
        <rect id="Rectangle_438-4" data-name="Rectangle 438" width="7.521" height="0.977" rx="0.234" transform="translate(21.952 6.058)" fill="#0cf"/>
        <path id="Path_2072-4" data-name="Path 2072" d="M407.608,209.462h-9.559a.448.448,0,0,1-.388-.49h0a.447.447,0,0,1,.388-.488h9.559a.447.447,0,0,1,.388.488h0A.448.448,0,0,1,407.608,209.462Z" transform="translate(-391.731 -202.426)" fill="#e3eaff"/>
        <path id="Path_2073-4" data-name="Path 2073" d="M408.025,209.462h-3.79a.448.448,0,0,1-.388-.49h0a.447.447,0,0,1,.388-.488h3.79a.447.447,0,0,1,.388.488h0A.448.448,0,0,1,408.025,209.462Z" transform="translate(-387.062 -202.426)" fill="#0cf"/>
        <path id="Path_2074-4" data-name="Path 2074" d="M398.7,211.236H394.67a.447.447,0,0,1-.388-.488h0a.447.447,0,0,1,.388-.488H398.7a.447.447,0,0,1,.388.488h0A.447.447,0,0,1,398.7,211.236Z" transform="translate(-394.282 -202.249)" fill="#e3eaff"/>
        <path id="Path_2075-4" data-name="Path 2075" d="M426.825,211.236H398.049a.447.447,0,0,1-.388-.488h0a.447.447,0,0,1,.388-.488h28.776a.447.447,0,0,1,.388.488h0A.447.447,0,0,1,426.825,211.236Z" transform="translate(-391.731 -202.249)" fill="#e3eaff"/>
        <path id="Path_2076-4" data-name="Path 2076" d="M398.7,218.264H394.67a.447.447,0,0,1-.388-.488h0a.447.447,0,0,1,.388-.488H398.7a.447.447,0,0,1,.388.488h0A.447.447,0,0,1,398.7,218.264Z" transform="translate(-394.282 -201.546)" fill="#e3eaff"/>
        <rect id="Rectangle_439-4" data-name="Rectangle 439" width="10.405" height="0.977" rx="0.275" transform="translate(21.952 15.741)" fill="#e3eaff"/>
        <path id="Path_2077-4" data-name="Path 2077" d="M407.608,218.264h-9.559a.447.447,0,0,1-.388-.488h0a.447.447,0,0,1,.388-.488h9.559a.447.447,0,0,1,.388.488h0A.447.447,0,0,1,407.608,218.264Z" transform="translate(-391.731 -201.546)" fill="#e3eaff"/>
        <path id="Path_2078-4" data-name="Path 2078" d="M408.025,218.264h-3.79a.447.447,0,0,1-.388-.488h0a.447.447,0,0,1,.388-.488h3.79a.447.447,0,0,1,.388.488h0A.447.447,0,0,1,408.025,218.264Z" transform="translate(-387.062 -201.546)" fill="#e3eaff"/>
        <path id="Path_2079-4" data-name="Path 2079" d="M398.7,220.039H394.67a.447.447,0,0,1-.388-.488h0a.446.446,0,0,1,.388-.488H398.7a.446.446,0,0,1,.388.488h0A.447.447,0,0,1,398.7,220.039Z" transform="translate(-394.282 -201.368)" fill="#ffc359"/>
        <path id="Path_2080-4" data-name="Path 2080" d="M403.031,220.039h-4.982a.447.447,0,0,1-.388-.488h0a.446.446,0,0,1,.388-.488h4.982a.446.446,0,0,1,.388.488h0A.447.447,0,0,1,403.031,220.039Z" transform="translate(-391.731 -201.368)" fill="#0cf"/>
        <path id="Path_2081-4" data-name="Path 2081" d="M394.67,213.072a.447.447,0,0,1-.388-.488h0a.447.447,0,0,1,.388-.488H398.7a.447.447,0,0,1,.388.488h0a.447.447,0,0,1-.388.488" transform="translate(-394.282 -202.065)" fill="#0cf"/>
        <rect id="Rectangle_440-4" data-name="Rectangle 440" width="11.757" height="0.977" rx="0.292" transform="translate(21.952 10.029)" fill="#e3eaff"/>
        <path id="Path_2082-4" data-name="Path 2082" d="M407.608,213.072h-9.559a.447.447,0,0,1-.388-.488h0a.447.447,0,0,1,.388-.488h9.559a.447.447,0,0,1,.388.488h0A.447.447,0,0,1,407.608,213.072Z" transform="translate(-391.731 -202.065)" fill="#ffc359"/>
        <path id="Path_2083-4" data-name="Path 2083" d="M408.025,213.072h-3.79a.447.447,0,0,1-.388-.488h0a.447.447,0,0,1,.388-.488h3.79a.447.447,0,0,1,.388.488h0A.447.447,0,0,1,408.025,213.072Z" transform="translate(-387.062 -202.065)" fill="#ffc359"/>
        <path id="Path_2084-4" data-name="Path 2084" d="M421.106,221.926H398.049a.447.447,0,0,1-.388-.488h0a.447.447,0,0,1,.388-.488h23.057a.447.447,0,0,1,.388.488h0A.447.447,0,0,1,421.106,221.926Z" transform="translate(-391.731 -201.18)" fill="#e3eaff"/>
        <path id="Path_2085-4" data-name="Path 2085" d="M405.4,223.762h-7.355a.447.447,0,0,1-.388-.488h0a.447.447,0,0,1,.388-.488H405.4a.447.447,0,0,1,.388.488h0A.447.447,0,0,1,405.4,223.762Z" transform="translate(-391.731 -200.996)" fill="#e3eaff"/>
        <path id="Path_2086-4" data-name="Path 2086" d="M413.694,223.762h-10.6a.447.447,0,0,1-.388-.488h0a.447.447,0,0,1,.388-.488h10.6a.447.447,0,0,1,.388.488h0A.447.447,0,0,1,413.694,223.762Z" transform="translate(-387.924 -200.996)" fill="#e3eaff"/>
        <path id="Path_2087-4" data-name="Path 2087" d="M421.106,232.7H398.049a.446.446,0,0,1-.388-.488h0a.447.447,0,0,1,.388-.488h23.057a.447.447,0,0,1,.388.488h0A.446.446,0,0,1,421.106,232.7Z" transform="translate(-391.731 -200.102)" fill="#e3eaff"/>
        <path id="Path_2088-4" data-name="Path 2088" d="M398.7,234.536H394.67a.447.447,0,0,1-.388-.488h0a.447.447,0,0,1,.388-.488H398.7a.447.447,0,0,1,.388.488h0A.447.447,0,0,1,398.7,234.536Z" transform="translate(-394.282 -199.919)" fill="#ff56a9"/>
        <path id="Path_2089-4" data-name="Path 2089" d="M405.4,234.536h-7.355a.447.447,0,0,1-.388-.488h0a.447.447,0,0,1,.388-.488H405.4a.447.447,0,0,1,.388.488h0A.447.447,0,0,1,405.4,234.536Z" transform="translate(-391.731 -199.919)" fill="#0cf"/>
        <path id="Path_2090-4" data-name="Path 2090" d="M413.694,234.536h-10.6a.447.447,0,0,1-.388-.488h0a.447.447,0,0,1,.388-.488h10.6a.447.447,0,0,1,.388.488h0A.447.447,0,0,1,413.694,234.536Z" transform="translate(-387.924 -199.919)" fill="#e3eaff"/>
        <path id="Path_2091-4" data-name="Path 2091" d="M398.7,225.6H394.67a.447.447,0,0,1-.388-.488h0a.446.446,0,0,1,.388-.488H398.7a.446.446,0,0,1,.388.488h0A.447.447,0,0,1,398.7,225.6Z" transform="translate(-394.282 -200.813)" fill="#ff56a9"/>
        <rect id="Rectangle_441-4" data-name="Rectangle 441" width="21.441" height="0.977" rx="0.267" transform="translate(5.929 23.808)" fill="#ff56a9"/>
        <path id="Path_2092-4" data-name="Path 2092" d="M398.7,227.434H394.67a.448.448,0,0,1-.388-.49h0a.447.447,0,0,1,.388-.488H398.7a.447.447,0,0,1,.388.488h0A.448.448,0,0,1,398.7,227.434Z" transform="translate(-394.282 -200.629)" fill="#e3eaff"/>
        <path id="Path_2093-4" data-name="Path 2093" d="M407.608,227.434h-9.559a.448.448,0,0,1-.388-.49h0a.447.447,0,0,1,.388-.488h9.559a.447.447,0,0,1,.388.488h0A.448.448,0,0,1,407.608,227.434Z" transform="translate(-391.731 -200.629)" fill="#e3eaff"/>
        <path id="Path_2094-4" data-name="Path 2094" d="M408.025,227.434h-3.79a.448.448,0,0,1-.388-.49h0a.447.447,0,0,1,.388-.488h3.79a.447.447,0,0,1,.388.488h0A.448.448,0,0,1,408.025,227.434Z" transform="translate(-387.062 -200.629)" fill="#e3eaff"/>
        <path id="Path_2095-4" data-name="Path 2095" d="M398.7,229.208H394.67a.446.446,0,0,1-.388-.488h0a.447.447,0,0,1,.388-.488H398.7a.447.447,0,0,1,.388.488h0A.446.446,0,0,1,398.7,229.208Z" transform="translate(-394.282 -200.452)" fill="#e3eaff"/>
        <path id="Rectangle_442-4" data-name="Rectangle 442" d="M.3,0H26.7a.3.3,0,0,1,.3.3V.678a.3.3,0,0,1-.3.3H.3a.3.3,0,0,1-.3-.3V.3A.3.3,0,0,1,.3,0Z" transform="translate(5.929 27.779)" fill="#e3eaff"/>
        <path id="Path_2096-4" data-name="Path 2096" d="M398.7,236.236H394.67a.447.447,0,0,1-.388-.488h0a.447.447,0,0,1,.388-.488H398.7a.447.447,0,0,1,.388.488h0A.447.447,0,0,1,398.7,236.236Z" transform="translate(-394.282 -199.749)" fill="#e3eaff"/>
        <path id="Path_2097-4" data-name="Path 2097" d="M419.9,236.236H407.179a.447.447,0,0,1-.388-.488h0a.447.447,0,0,1,.388-.488H419.9a.447.447,0,0,1,.388.488h0A.447.447,0,0,1,419.9,236.236Z" transform="translate(-384.839 -199.749)" fill="#e3eaff"/>
        <path id="Path_2098-4" data-name="Path 2098" d="M407.608,236.236h-9.559a.447.447,0,0,1-.388-.488h0a.447.447,0,0,1,.388-.488h9.559a.447.447,0,0,1,.388.488h0A.447.447,0,0,1,407.608,236.236Z" transform="translate(-391.731 -199.749)" fill="#e3eaff"/>
        <path id="Path_2099-4" data-name="Path 2099" d="M408.025,236.236h-3.79a.447.447,0,0,1-.388-.488h0a.447.447,0,0,1,.388-.488h3.79a.447.447,0,0,1,.388.488h0A.447.447,0,0,1,408.025,236.236Z" transform="translate(-387.062 -199.749)" fill="#e3eaff"/>
        <rect id="Rectangle_443-4" data-name="Rectangle 443" width="17.836" height="0.977" rx="0.243" transform="translate(5.929 37.462)" fill="#ffc359"/>
        <rect id="Rectangle_444-4" data-name="Rectangle 444" width="12.448" height="0.977" rx="0.301" transform="translate(21.952 29.799)" fill="#ff56a9"/>
        <path id="Path_2100-4" data-name="Path 2100" d="M407.608,231.044h-9.559a.447.447,0,0,1-.388-.488h0a.447.447,0,0,1,.388-.488h9.559a.447.447,0,0,1,.388.488h0A.447.447,0,0,1,407.608,231.044Z" transform="translate(-391.731 -200.268)" fill="#ffc359"/>
        <path id="Path_2101-4" data-name="Path 2101" d="M408.025,231.044h-3.79a.447.447,0,0,1-.388-.488h0a.447.447,0,0,1,.388-.488h3.79a.447.447,0,0,1,.388.488h0A.447.447,0,0,1,408.025,231.044Z" transform="translate(-387.062 -200.268)" fill="#ffc359"/>
      </g>
    </g>
    <g id="Group_3783" data-name="Group 3783" transform="translate(550.856 247.007)">
      <g id="Group_3776" data-name="Group 3776" transform="translate(0)" opacity="0.3" style="mix-blend-mode: multiply;isolation: isolate">
        <g id="Group_3775" data-name="Group 3775">
          <path id="Path_1954" data-name="Path 1954" d="M369.541,262.33c-.09-.38.35-.49.81.26a4.261,4.261,0,0,0,2.88,1.92c.08-.2-.2-.27-.4-.71-.23-.49-.08-.83.13-.91.17-.06.54.5.67.6.49.42.97.83,1.46,1.24a3.162,3.162,0,0,1,1.06,1.44c.01.04.04.18.07.36,3.25,2.48,13.99,5.58,15.44,6.46a25.31,25.31,0,0,0,5.35.24c.01-.34.03-.55.03-.55s4.44-.74,6.56-1.99a4.8,4.8,0,0,1,3.01-.6,4.131,4.131,0,0,1,.32-.49c.02-.03.04-.05.06-.08.54-.63,1.34-.96,1.83-1.62a8.488,8.488,0,0,0-.34-3.42,14.512,14.512,0,0,0-2.94-2.83,3.011,3.011,0,0,1-.74-3.16,23.712,23.712,0,0,1,1.1-4.2c.25-.51.69-.86.92-1.31a1.833,1.833,0,0,0,.13-.24c-.63-.71,1.21-5.87,6.88-5.73a9.772,9.772,0,0,1,4.19.78c1.27.64,2.69,1.79,2.6,2.93,2.01.39,2.29,2.43,2.45,3.2a10.212,10.212,0,0,1,.12,3.31c-.21,1.63-.82,3.19-1.14,4.8a7.05,7.05,0,0,0,.18,4.02c.5,1.2,1.69,1.85,2.3,3.02a5.319,5.319,0,0,1-.07,4.82c-.36.67-.74,1.24-1.05,1.82a58.936,58.936,0,0,1,1.65,6.07l14.86,2.52a.811.811,0,0,1,.66.93l-3.69,21.7a.8.8,0,0,1-.93.65l-12.56-2.13a20.578,20.578,0,0,1-.02,5.14c-.2,1.47-1.68,5.51-1.91,6.97-.52,3.35-1.59,8.26-1.53,12.07a8.364,8.364,0,0,1-1.04.66,87.841,87.841,0,0,0-1.38,9.41c.2,1.43,1.78,5.45,2.32,9.66.02.17.04.35.06.55h-8.24c-.57-3.02-1.04-5.68-1.33-7.71v-.01c-.07-.51-.13-.96-.18-1.38-.01-.04-.01-.09-.02-.12-.02-.23-.04-.44-.06-.64-.03-.35-.05-.72-.08-1.1-.01-.11-.01-.23-.02-.34-.02-.31-.03-.63-.04-.97-.01-.09-.01-.18-.02-.28-.01-.41-.02-.83-.03-1.28-.01-.13-.01-.27-.01-.4-.01-.34-.01-.68-.01-1.03,0-.16-.01-.32-.01-.48v-.4c-1.38,4-2.45,7.09-2.45,7.09a45.1,45.1,0,0,1,1.46,9.05h-7.89c-.25-4.56-.46-8.35-.53-10.16a78.905,78.905,0,0,1,.25-9.52c0-.01,0-.01-.01-.01a84.019,84.019,0,0,1-.05-14.65,53.281,53.281,0,0,1,2.79-13.52l-7.75-1.32a.789.789,0,0,1-.65-.92l3.42-20.17a10.662,10.662,0,0,0-1.2.06,6.5,6.5,0,0,1-.17-.93c-2.8-.24-5.13-.49-5.71-.6-4.54-.89-15.83-8.53-16.82-9.21a4.486,4.486,0,0,1-3.32-1.43,1.484,1.484,0,0,1-.25-.95c-.32-.38-.88-1.72.09-1.44A4.112,4.112,0,0,1,369.541,262.33Z" transform="translate(-369.53 -247.007)" fill="#5fb0e7"/>
        </g>
      </g>
      <g id="Group_3782" data-name="Group 3782" transform="translate(2.556 0.002)">
        <g id="Group_3777" data-name="Group 3777" transform="translate(16.76 136.764)">
          <path id="Path_1955" data-name="Path 1955" d="M376.875,386.259c0,1.372,9.939,2.486,22.2,2.486s22.2-1.114,22.2-2.486-9.939-2.486-22.2-2.486S376.875,384.886,376.875,386.259Z" transform="translate(-376.875 -383.773)" fill="#00a4d6" opacity="0.5" style="mix-blend-mode: multiply;isolation: isolate"/>
        </g>
        <g id="Group_3781" data-name="Group 3781" transform="translate(0)">
          <g id="Group_3778" data-name="Group 3778" transform="translate(40.32 51.529)">
            <path id="Path_1956" data-name="Path 1956" d="M385.874,307.032l10.571-8.494a19.812,19.812,0,0,1,.512,12.243c-.968,3.081.061,5.271-.461,6.732-.488,1.364-4.071,20.759-3.872,22.188s1.778,5.452,2.317,9.655c.648,5.056.126,21.465.618,25.831s-3.544,5.006-3.73,3.528c-1.588-12.628-6.109-32.356-6.657-38.663S385.183,322.231,385.874,307.032Z" transform="translate(-384.951 -298.538)" fill="#ffe1bd"/>
            <path id="Path_1957" data-name="Path 1957" d="M393.457,319.431l4.259,10.448a23.17,23.17,0,0,0-3.4,10.763c-.123,1.993.005,4-.1,5.99a1.958,1.958,0,0,1-.071.433c-.533-2.972-.925-5.421-1.064-7.013-.387-4.456-.221-11.521.153-20.637A1.843,1.843,0,0,1,393.457,319.431Z" transform="translate(-392.86 -298.538)" fill="#fccb95"/>
            <path id="Path_1958" data-name="Path 1958" d="M390.422,374.658s.856,4.588.582,5.164a8.006,8.006,0,0,1-2.218,2.834c-1.018.617-3.258,1.327-3.442,1.6a.69.69,0,0,0,.105.936,4.607,4.607,0,0,0,3.148.879c3.024-.426,3.368-1.75,5.128-1.922.3-.029.854.432,1.7.023a1.992,1.992,0,0,0,1.22-1.9,8.633,8.633,0,0,0-1.257-3.257c-.48-.942-.733-5.207-.733-5.207" transform="translate(-384.145 -298.538)" fill="#ffe1bd"/>
            <path id="Path_1959" data-name="Path 1959" d="M384.96,385.406c-.211-.381-.253-.95-.045-1.084a17.569,17.569,0,0,1,1.9-1.084c.59-.255,1.523-.47,1.192-.3s.255.842.8.822c1.891-.071,3.313-1.292,4.395-1.535a3.7,3.7,0,0,0,2.331-2.464,7.264,7.264,0,0,1,1.064,2.153,3.705,3.705,0,0,1,.191,1.628,3.781,3.781,0,0,0-.209,1.543,2.956,2.956,0,0,1-1.125.376,4.4,4.4,0,0,1-1.2-.011l-.111-.978a4.4,4.4,0,0,0-.962.071,5.194,5.194,0,0,0-1.483.65c-.222.252-.406.717-.694.854a6.024,6.024,0,0,1-2.492.559C386.487,386.673,385.32,386.057,384.96,385.406Z" transform="translate(-383.896 -298.538)" fill="#594a5f"/>
          </g>
          <g id="Group_3779" data-name="Group 3779" transform="translate(25.647 49.736)">
            <path id="Path_1960" data-name="Path 1960" d="M386.976,384.435c.225-.244,2.63-.61,3.761-1.069a6.481,6.481,0,0,0,2.65-2.475,26.973,26.973,0,0,0,.213-5.01c-.133-8.964-1.568-30.882-1.755-36.129-.324-9.12.954-18.518,4.61-33.116l13.161-9.891s3.589,6.836,2.3,13.325c-.749,3.765-3.883,4.313-4.427,5.774s-8.685,25.017-8.685,25.017a44.482,44.482,0,0,1,1.519,10.724c.028,4.779-2.285,19.173-2.743,24.661-.058,1.072-.269,3.639.039,4.46.377,1.006,1.353,2.193,1.291,3.457a1.944,1.944,0,0,1-1.5,1.7c-.928.278-1.439-.262-1.756-.279-1.841-.094-2.363,1.167-5.542,1.134a5.036,5.036,0,0,1-3.143-1.344A.673.673,0,0,1,386.976,384.435Z" transform="translate(-386.583 -296.745)" fill="#ffe1bd"/>
            <path id="Path_1961" data-name="Path 1961" d="M399.821,385.554c-.169-.409-.141-.98.091-1.082a18.209,18.209,0,0,1,2.1-.788c.642-.164,1.633-.237,1.27-.119s.156.872.725.934c1.963.215,3.587-.782,4.736-.86a3.021,3.021,0,0,0,2.4-2.1,7.6,7.6,0,0,1,1.149,2.3,3.6,3.6,0,0,1-.008,1.642,3.58,3.58,0,0,0-.412,1.5,3.13,3.13,0,0,1-1.211.2,4.8,4.8,0,0,1-1.241-.191l.01-.986a4.8,4.8,0,0,0-1-.074,3.331,3.331,0,0,0-1.626.556c-.271.2-.559.54-.878.617a6.658,6.658,0,0,1-2.582.169C401.239,387.039,400.11,386.253,399.821,385.554Z" transform="translate(-399.713 -296.745)" fill="#594a5f"/>
          </g>
          <g id="Group_3780" data-name="Group 3780" transform="translate(0 15.027)">
            <path id="Path_1962" data-name="Path 1962" d="M436.345,268.959a4.477,4.477,0,0,1-3.34-1.433,1.49,1.49,0,0,1-.25-.949c-.322-.378-.877-1.719.087-1.439a4.107,4.107,0,0,1-1.514-2.8c-.09-.379.349-.493.807.258a4.27,4.27,0,0,0,2.881,1.923c.081-.207-.2-.274-.4-.715-.23-.488-.08-.827.139-.908.165-.062.539.495.667.6l1.457,1.237a3.043,3.043,0,0,1,1.057,1.439c.041.11.3,1.23-.185,1.073" transform="translate(-431.316 -262.036)" fill="#ffe1bd"/>
            <path id="Path_1963" data-name="Path 1963" d="M431.331,279.3c-4.9-.056-13.683-.9-14.89-1.132-4.755-.933-16.9-9.262-16.9-9.262a2.314,2.314,0,0,1,1.621-2.482c3.082,2.5,14.113,5.668,15.583,6.562.952.579,16.376-.052,16.376-.052" transform="translate(-394.609 -262.036)" fill="#ffe1bd"/>
          </g>
          <path id="Path_1964" data-name="Path 1964" d="M384.5,273.277a62.608,62.608,0,0,1,2.764,10.057l-5.04.793v-7.139" transform="translate(-331.446 -247.009)" fill="#0dc2b1"/>
          <rect id="Rectangle_417" data-name="Rectangle 417" width="42.473" height="23.612" rx="0.802" transform="matrix(-0.986, -0.168, 0.168, -0.986, 67.224, 60.706)" fill="#2c1e56"/>
          <path id="Path_1965" data-name="Path 1965" d="M369.022,299.354l38.048,6.623a.7.7,0,0,0,.806-.572l3.214-18.915a.7.7,0,0,0-.572-.806l-38.048-6.623a.7.7,0,0,0-.806.572l-3.214,18.915A.7.7,0,0,0,369.022,299.354Z" transform="translate(-341.504 -247.009)" fill="#39297f"/>
          <path id="Path_1966" data-name="Path 1966" d="M370.857,304.213l.636.106a.6.6,0,0,0,.694-.492l2.769-16.293a.6.6,0,0,0-.493-.694l-.636-.107a.6.6,0,0,0-.694.493l-2.769,16.293A.6.6,0,0,0,370.857,304.213Z" transform="translate(-307.284 -247.009)" fill="#4c4199"/>
          <path id="Path_1967" data-name="Path 1967" d="M374.273,303.559l.636.106a.6.6,0,0,0,.695-.493l2.768-16.292a.6.6,0,0,0-.493-.7l-.635-.106a.6.6,0,0,0-.7.492l-2.768,16.293A.6.6,0,0,0,374.273,303.559Z" transform="translate(-314.117 -247.009)" fill="#4c4199"/>
          <path id="Path_1968" data-name="Path 1968" d="M377.691,302.9l.636.107a.6.6,0,0,0,.694-.493l2.768-16.293a.6.6,0,0,0-.492-.694l-.636-.107a.6.6,0,0,0-.694.493L377.2,302.21A.6.6,0,0,0,377.691,302.9Z" transform="translate(-320.951 -247.009)" fill="#4c4199"/>
          <path id="Path_1969" data-name="Path 1969" d="M381.107,302.25l.636.106a.6.6,0,0,0,.694-.492l2.769-16.293a.6.6,0,0,0-.493-.7l-.636-.106a.6.6,0,0,0-.694.493l-2.769,16.292A.6.6,0,0,0,381.107,302.25Z" transform="translate(-327.784 -247.009)" fill="#4c4199"/>
          <path id="Path_1970" data-name="Path 1970" d="M384.523,301.6l.636.107a.6.6,0,0,0,.695-.493l2.768-16.293a.6.6,0,0,0-.493-.694l-.635-.107a.6.6,0,0,0-.7.493L384.031,300.9A.6.6,0,0,0,384.523,301.6Z" transform="translate(-334.617 -247.009)" fill="#4c4199"/>
          <path id="Path_1971" data-name="Path 1971" d="M387.941,300.941l.636.106a.6.6,0,0,0,.694-.492l2.768-16.293a.6.6,0,0,0-.492-.7l-.636-.106a.6.6,0,0,0-.694.493l-2.769,16.293A.6.6,0,0,0,387.941,300.941Z" transform="translate(-341.451 -247.009)" fill="#4c4199"/>
          <path id="Path_1972" data-name="Path 1972" d="M391.357,300.287l.636.106a.6.6,0,0,0,.694-.493l2.769-16.292a.6.6,0,0,0-.493-.7l-.636-.106a.6.6,0,0,0-.694.492l-2.769,16.293A.6.6,0,0,0,391.357,300.287Z" transform="translate(-348.284 -247.009)" fill="#4c4199"/>
          <path id="Path_1973" data-name="Path 1973" d="M394.773,299.632l.636.106a.6.6,0,0,0,.695-.492l2.768-16.293a.6.6,0,0,0-.493-.694l-.635-.107a.6.6,0,0,0-.7.493l-2.768,16.293A.6.6,0,0,0,394.773,299.632Z" transform="translate(-355.117 -247.009)" fill="#4c4199"/>
          <path id="Path_1974" data-name="Path 1974" d="M398.191,298.978l.636.106a.6.6,0,0,0,.694-.493l2.768-16.292a.6.6,0,0,0-.492-.7l-.636-.106a.6.6,0,0,0-.694.492L397.7,298.283A.6.6,0,0,0,398.191,298.978Z" transform="translate(-361.951 -247.009)" fill="#4c4199"/>
          <path id="Path_1975" data-name="Path 1975" d="M401.607,298.323l.636.107a.6.6,0,0,0,.694-.493l2.769-16.293a.6.6,0,0,0-.493-.694l-.636-.107a.6.6,0,0,0-.694.493l-2.769,16.293A.6.6,0,0,0,401.607,298.323Z" transform="translate(-368.784 -247.009)" fill="#4c4199"/>
          <path id="Path_1976" data-name="Path 1976" d="M405.023,297.669l.636.106a.6.6,0,0,0,.695-.492l2.768-16.293a.6.6,0,0,0-.493-.695l-.635-.106a.6.6,0,0,0-.7.493l-2.768,16.293A.6.6,0,0,0,405.023,297.669Z" transform="translate(-375.617 -247.009)" fill="#4c4199"/>
          <path id="Path_1977" data-name="Path 1977" d="M402.744,296.7c3.633,3.135,5.027,8.337,4.3,13.888-.194,1.47-1.677,5.507-1.906,6.976-.521,3.341-1.591,8.259-1.528,12.069-4.876,3.537-14.778,3.227-19.26.588a82.911,82.911,0,0,1-.052-14.649c.532-9.629,4.828-18.607,4.914-19.409" transform="translate(-353.194 -247.009)" fill="#594a5f"/>
          <path id="Path_1978" data-name="Path 1978" d="M386.549,287.508a45.654,45.654,0,0,1-.239,7.3,14.545,14.545,0,0,0-.24,1.925,1.1,1.1,0,0,0,.381.751,5.313,5.313,0,0,0,2.644,1.022c3.611.653,9.323.218,10.933.533,1.512.3,3.068-.206,3.068-1.131,0-.642-.588-1-.642-2.263a74.668,74.668,0,0,1,.479-11.858,46.748,46.748,0,0,0,.62-15.959L392.522,264.7c-.849.141-.479,2.73-1.328,2.872-.62.1-4.112,3.416-5.1,7.332a15.364,15.364,0,0,0-1.273,2.546,4.491,4.491,0,0,0,.011,3.481A24.607,24.607,0,0,1,386.549,287.508Z" transform="translate(-350.4 -247.009)" fill="#12afa0"/>
          <path id="Path_1979" data-name="Path 1979" d="M403.072,287.508a45.654,45.654,0,0,1-.239,7.3,14.545,14.545,0,0,0-.24,1.925,1.1,1.1,0,0,0,.381.751v-.011c-.326-.729.457-4.352.794-6.386a23.023,23.023,0,0,0-.478-8.475c-.718-2.491-.99-3.677-.99-3.677s-.566-.848-.958-1.49a4.491,4.491,0,0,0,.011,3.481A24.607,24.607,0,0,1,403.072,287.508Z" transform="translate(-366.924 -247.009)" fill="#0dc2b1"/>
          <path id="Path_1980" data-name="Path 1980" d="M403.844,270.129a4.83,4.83,0,0,0-3.251.557c-2.128,1.256-6.568,2-6.568,2s-.341,5.072.207,7.019a26.739,26.739,0,0,1,5.847.243c4.521.49,10.556,3.485,10.556,3.485" transform="translate(-366.519 -247.009)" fill="#0dc2b1"/>
          <path id="Path_1981" data-name="Path 1981" d="M388.441,252.979c1.081-2.07,2.8-5,6.9-4.593s7.61,2.991,7.56,6.063-2.13,6.771-2.931,8.9a13.956,13.956,0,0,0-.462,5.284l-9.087-.326s.236-2.777-.318-3.827a14.574,14.574,0,0,0-2.94-2.828,3.016,3.016,0,0,1-.745-3.16,23.593,23.593,0,0,1,1.1-4.2C387.771,253.776,388.205,253.43,388.441,252.979Z" transform="translate(-351.147 -247.009)" fill="#ffe1bd"/>
          <path id="Path_1982" data-name="Path 1982" d="M383.374,269.523c.551-.652,1.4-.978,1.883-1.68a3.79,3.79,0,0,0,.648-2.46,4.581,4.581,0,0,0-.543-1.392c-.989-1.992-1.051-3.28.36-4.891a5.588,5.588,0,0,0,1.153-1.741c.214-.6.379-1.248-.2-1.61a.775.775,0,0,0-1.047.01c-.224.2-.872,2.1-.987.8-.109-1.25-.583-1.565.514-3.808.129-.266.737-1.311.646-1.55a3.046,3.046,0,0,0-2.467,1.539c-.63-.706,1.21-5.869,6.879-5.727a9.7,9.7,0,0,1,4.186.776c1.274.646,2.693,1.787,2.608,2.932,2.007.386,2.29,2.434,2.446,3.2a10.076,10.076,0,0,1,.119,3.319c-.213,1.629-.818,3.184-1.14,4.8a7.024,7.024,0,0,0,.184,4.015c.5,1.2,1.689,1.854,2.293,3.026a5.273,5.273,0,0,1-.067,4.817c-.783,1.483-1.763,2.457-1.507,4.279a5.823,5.823,0,0,1-1.918,5.558,5.993,5.993,0,0,1-4.332,1.173,9.985,9.985,0,0,1-3.552-1.121c-2.118-1.15-4.006-1.892-5.375-4.947-.775-1.731.359-1.972-.331-3.745-.388-.994-1.216-1.818-1.322-2.921a3.709,3.709,0,0,1,.806-2.565Z" transform="translate(-345.914 -247.009)" fill="#00215b"/>
        </g>
      </g>
    </g>
    <g id="Group_3791" data-name="Group 3791" transform="translate(347.562 240.503)">
      <g id="Group_3785" data-name="Group 3785" transform="translate(0 142.466)" opacity="0.5">
        <path id="Path_1984" data-name="Path 1984" d="M615.113,384.68c0,.944-14.261,1.71-31.854,1.71s-31.851-.766-31.851-1.71,14.26-1.711,31.851-1.711S615.113,383.735,615.113,384.68Z" transform="translate(-551.408 -382.969)" fill="#00a4d6"/>
      </g>
      <g id="Group_3786" data-name="Group 3786" transform="translate(41.899 135.271)">
        <path id="Path_1985" data-name="Path 1985" d="M573.151,375.774a44.834,44.834,0,0,1-.06,5.538c-.185.813-2.71.893-3.017.462s-.7-5.661-.7-5.661" transform="translate(-569.374 -375.774)" fill="#ffe1bd"/>
        <path id="Path_1986" data-name="Path 1986" d="M562.414,382.507a17.671,17.671,0,0,0,.241,2.278h3.051l.151-.509a4.8,4.8,0,0,0,1.766.509H570.2c1.885,0,2.955-.24,3-.571.2-1.387-2.053-1.324-2.64-1.324-1.683,0-3.507-.788-3.9-1.643-.288-.62-.161-.777-.509-.661a.874.874,0,0,0-.523.451,1.544,1.544,0,0,1-1.591.868,1.834,1.834,0,0,1-1.031-.5A1.112,1.112,0,0,0,562.414,382.507Z" transform="translate(-562.414 -375.774)" fill="#3a3a3a"/>
      </g>
      <g id="Group_3787" data-name="Group 3787" transform="translate(8.058 133.759)">
        <path id="Path_1987" data-name="Path 1987" d="M605.342,376.329s-.834,2.246-1.2,2.995-2.847-.174-2.973-.689,1.888-4.373,1.888-4.373" transform="translate(-599.451 -374.262)" fill="#ffe1bd"/>
        <path id="Path_1988" data-name="Path 1988" d="M597.555,379.057c-.321.8-.8,2.366-.8,2.366l2.313,1.379.454-.343a4.512,4.512,0,0,0,1.217,1.272,9.939,9.939,0,0,0,2.289.949c2.113.482,3.746.249,3.913-.042.7-1.214-2.1-1.881-2.647-2.1a3.776,3.776,0,0,1-2.333-3.081c-.038-.683.138-.782-.228-.8,0,0-.713-.12-1.136.943-.028-.006-1.668-.3-2.09-1.344A1.112,1.112,0,0,0,597.555,379.057Z" transform="translate(-596.758 -374.262)" fill="#3a3a3a"/>
      </g>
      <g id="Group_3789" data-name="Group 3789" transform="translate(10.302 60.547)">
        <path id="Path_1989" data-name="Path 1989" d="M570.08,318.288s-.24-1.547-.435-2.555c-.621-3.2-1.591-9.62,3.644-14.683,0,0,6.171,2.763,11.113,3.1,3.891.263,4.784,0,4.784,0s.253,5.252-1.317,18.417Z" transform="translate(-553.534 -301.05)" fill="#594a5f"/>
        <g id="Group_3788" data-name="Group 3788" transform="translate(0 5.006)">
          <path id="Path_1990" data-name="Path 1990" d="M580.914,375.325a21.318,21.318,0,0,0,3.971,1.926l.365-.642q.385-.713.8-1.452l.01-.01a.5.5,0,0,1,.04-.079c.879-1.541,1.847-3.171,2.864-4.85l.01-.009a.081.081,0,0,1,.019-.04c5.492-9,12.494-19.131,14.983-23.121.01-.02.03-.03.03-.049a6.234,6.234,0,0,0,.484-.949c.02-.059.049-.118.069-.168a2.571,2.571,0,0,0,.158-.5c.02-.1.039-.2.059-.306a.436.436,0,0,0,.01-.05,2.1,2.1,0,0,0-.5-1.787,1.744,1.744,0,0,0-.316-.287c-1.343-.968-4.039-.75-6.261.82-.109.079-.228.168-.346.257-.059.039-.119.089-.178.128a21.448,21.448,0,0,0-5.333,5.353C586.771,357.171,583.759,368.757,580.914,375.325Z" transform="translate(-580.914 -306.056)" fill="#594a5f"/>
          <path id="Path_1991" data-name="Path 1991" d="M571.864,344.934c-.089,4.218,1.462,5.186,3.171,4.761a4.821,4.821,0,0,0,.879-.326,7.706,7.706,0,0,0,2.874-2.558c.01-.02.029-.03.02-.049a5.355,5.355,0,0,0,.385-.712c.02-.059.049-.118.069-.168a2.571,2.571,0,0,0,.158-.5c.02-.1.039-.2.059-.306a.436.436,0,0,0,.01-.05c.415-2.1,1.4-5.708,2.6-9.916.681-2.38,1.422-4.948,2.163-7.536,2.251-7.772,4.375-15.4,4.316-17.629-.218-8.02-9.531-1.64-13.995,1.5-1.877,1.333-2.361,3.625-2.391,5.738-.039,1.985-.217,21.531-.3,26.973-.01.138-.01.267-.01.385C571.864,344.687,571.864,344.816,571.864,344.934Z" transform="translate(-555.618 -306.056)" fill="#594a5f"/>
          <path id="Path_1992" data-name="Path 1992" d="M589.039,339.4s-.2,4.155-4.445,8.841c0,0,6.143-1.86,6.478-2.213a21.888,21.888,0,0,0,1.858-4.727C592.878,340.855,589.039,339.4,589.039,339.4Z" transform="translate(-572.714 -306.056)" fill="#594a5f"/>
        </g>
        <path id="Path_1993" data-name="Path 1993" d="M578.341,375.068c.879-1.541,1.847-3.171,2.864-4.85l.01-.009a.081.081,0,0,1,.019-.04c5.492-9,12.494-19.131,14.983-23.121.01-.02.03-.03.03-.049a6.234,6.234,0,0,0,.484-.949c.02-.059.049-.118.069-.168a2.571,2.571,0,0,0,.158-.5c.02-.1.039-.2.059-.306a.436.436,0,0,0,.01-.05c.415-2.1,1.4-5.708,2.6-9.916L592.6,316.273h-2.558s2.884,8.7,4.06,12.622,1.5,10.036,1.6,12.28c.226,4.928-5.823,13.282-7.551,16.327C586.295,360.778,578.973,373.823,578.341,375.068Z" transform="translate(-573.155 -301.05)" fill="#4c4051"/>
        <path id="Path_1994" data-name="Path 1994" d="M570.907,379.411c.126.008.251.007.367.007a20.864,20.864,0,0,0,4.037-.3l-.005-.741c-.209-11.365,1.059-29.949,1.292-35.821.016-.411-.006-3.939,0-4.281.109-5.058-4.953-.55-6.8,3.41a15.727,15.727,0,0,0-1.037,3.044c-.323,1.324-.334,2.8-.663,4.293C566.155,357.879,570.1,372.089,570.907,379.411Z" transform="translate(-539.362 -301.05)" fill="#594a5f"/>
        <path id="Path_1995" data-name="Path 1995" d="M567.716,318.254c.021.115,8.373,20.84,10,25.34v.008a2.73,2.73,0,0,0,1.991,1.381c2.248.552,5.56-.361,5.735-4.826a10.937,10.937,0,0,0-.058-1.607c-.384-3.61-1.675-23.581-1.884-25.507s-.618-4.73-1.645-5.063C576.734,306.347,566.206,311.051,567.716,318.254Z" transform="translate(-548.214 -301.05)" fill="#594a5f"/>
        <path id="Path_1996" data-name="Path 1996" d="M574.7,340.028c1.138,5.3,1.135,4.02.659,7.979-.462,3.852,1.242-3.37,1.242-3.37l-1.065-2.694Z" transform="translate(-546.496 -301.05)" fill="#594a5f"/>
      </g>
      <path id="Path_1997" data-name="Path 1997" d="M549.732,285.382a5.287,5.287,0,0,1,1.259-.092,4.127,4.127,0,0,0,.438.278v.222a.551.551,0,0,1,.084.012c.053.027.839.531.919.593s1.042,1.155,1.042,1.155a.55.55,0,0,1-.52.038c-.363-.106-.929-.8-1.194-.99-.121-.089-.417-.278-.7-.457a1.39,1.39,0,0,0-1.207.2C549.4,286.814,549.732,285.382,549.732,285.382Z" transform="translate(-487.975 -240.503)" fill="#f4d4b3"/>
      <path id="Path_1998" data-name="Path 1998" d="M549.672,283.681s2.043.657,2.677.775,2.4-.094,3.334,0a9.242,9.242,0,0,1,2.424,1.738c.76.864,1.443,1.646,1.237,1.774-.426.264-1.5-1.089-2.382-1.721A1.35,1.35,0,0,0,555.43,286c-.3.211-.17.522.088.686s.846.235.893.4,0,.483-.846.324a4.469,4.469,0,0,1-1.761-.723,2.165,2.165,0,0,0-1.2-.375c-.634-.071-3.756-.624-3.756-.624" transform="translate(-493.119 -240.503)" fill="#ffe1bd"/>
      <path id="Path_1999" data-name="Path 1999" d="M555.315,280.529l.642,5.393.069.543c.177.01.345.01.523.02.81.03,1.65.049,2.489.079,6.035.138,12.454.079,12.454.079l.37-2.4a144.148,144.148,0,0,0-14.365-3.351C556.124,280.658,555.315,280.529,555.315,280.529Z" transform="translate(-512.064 -240.503)" fill="#12afa0"/>
      <g id="Group_3790" data-name="Group 3790" transform="translate(48.238 28.525)">
        <rect id="Rectangle_418" data-name="Rectangle 418" width="1.536" height="20.828" rx="0.632" transform="translate(22.265 20.119) rotate(-160.222)" fill="#1c44b5"/>
        <rect id="Rectangle_419" data-name="Rectangle 419" width="22.379" height="1.586" rx="0.734" transform="translate(0 18.974)" fill="#1c44b5"/>
      </g>
      <path id="Path_2000" data-name="Path 2000" d="M568.139,280.529l.642,5.393c.177.168.375.365.592.563.81.03,1.65.049,2.489.079a48.415,48.415,0,0,0-1.541-5.669C568.948,280.658,568.139,280.529,568.139,280.529Z" transform="translate(-524.888 -240.503)" fill="#11988b"/>
      <path id="Path_2001" data-name="Path 2001" d="M566.875,308.934c2.736-1.116,6.835.119,14.548,2.005s9.363.158,9.363.158c-.276-.582-.207-7.457-1.066-15.96-.178-1.827-.415-3.733-.692-5.669-1.155-7.872-3.229-16.237-7.1-22-1.916-2.855-7.358-4.247-7.358-4.247-2.973,3.634-5.906,7.96-5.9,14.489s1.728,12.918,1.481,16.681C569.887,298.159,566.875,308.934,566.875,308.934Z" transform="translate(-542.548 -240.503)" fill="#12afa0"/>
      <path id="Path_2002" data-name="Path 2002" d="M576.418,295.058a40.2,40.2,0,0,0,6.628.079c-.178-1.827-.415-3.733-.692-5.669l-.257-.01a3.218,3.218,0,0,1-3.032-2.4c-.513-1.936-1.382-5.018-2.686-9.077-2.321-7.249-4.741-7.536-4.741-7.536s-3.546-1.817-3.694,2.035C567.806,276.273,571.885,294.505,576.418,295.058Z" transform="translate(-535.875 -240.503)" fill="#0c9184"/>
      <path id="Path_2003" data-name="Path 2003" d="M587.578,319.346s-2.629-.949-4.131-5.46l1.626-2.865,3.456,1.605a25.211,25.211,0,0,1,.463,3.271C588.869,316.052,587.578,319.346,587.578,319.346Z" transform="translate(-557.343 -240.503)" fill="#594a5f"/>
      <path id="Path_2004" data-name="Path 2004" d="M544.416,290.706l.237-1.925a14.8,14.8,0,0,0,2.55.124c.82-.1,1.8-.533,2.983-.76s1.452.257,1.264.543c-.227.336-1.57.5-1.57.5s-.188.168.543.168h.756a3.126,3.126,0,0,0,.894-.4c.132-.131.267-.264.42-.427.782-.829,1.276-1.09,1.193-.529a4.424,4.424,0,0,1-2.345,2.69,13.81,13.81,0,0,1-2.63.734,2.384,2.384,0,0,1-1.036-.026,10.213,10.213,0,0,0-2.247-.267c-.659.029-1.069.032-1.069.032C542.888,291.283,543.665,290.957,544.416,290.706Z" transform="translate(-482.11 -240.503)" fill="#ffe1bd"/>
      <path id="Path_2005" data-name="Path 2005" d="M555.4,268.965s2.418.283,4.742,7.537c1.3,4.054,2.167,7.141,2.681,9.076a3.227,3.227,0,0,0,3.037,2.4l16.977.446.111,3.382s-6.628.716-11.223,1.372a49.631,49.631,0,0,1-11.543.4c-4.535-.556-8.983-20.47-8.765-22.5C551.757,267.893,555.4,268.965,555.4,268.965Z" transform="translate(-519.242 -240.503)" fill="#24bcae"/>
      <path id="Path_2006" data-name="Path 2006" d="M583.021,251.865s.434.863-.529,2.364c-.091.141-.464.338-.509.509a5.667,5.667,0,0,0,.018,1.8,16.158,16.158,0,0,1-3.422,6.68c-1.643.725-4.849-.414-7.559-1.844-.579-.05-3.779-1.624-3.316-6.17a16.967,16.967,0,0,1,4.257-8.815c.242-.095,7.263,1.2,7.545,1.256S583.021,251.865,583.021,251.865Z" transform="translate(-535.664 -240.503)" fill="#ffd1ab"/>
      <path id="Path_2007" data-name="Path 2007" d="M568.8,253.6a2.762,2.762,0,0,0,1.936-2.827c.078-2.417.39-2.5,1.869-1.146s11.455,6.62,12.312-4.55c-1.108.351-3.916-.219-6.544-1.481-1.366-.657-7.261-5.866-11.162-1.1-1.918-.339-4.573,1.375-5.287,5.718s.865,10.367,2.41,11.016c.994.418,1.466-.6,1.836-2.655.157-1.072-2.64-3.149.3-5.834A1.884,1.884,0,0,1,568.8,253.6Z" transform="translate(-531.547 -240.503)" fill="#2c1e56"/>
      <path id="Path_2008" data-name="Path 2008" d="M576.833,259.224s.275,3.129-.884,4.108c1.783,2.153,5.793,2.476,5.793,2.476s-.913-1.468,1.137-5.282S576.833,259.224,576.833,259.224Z" transform="translate(-544.048 -240.503)" fill="#ffd1ab"/>
      <path id="Path_2009" data-name="Path 2009" d="M583.531,266.222a17.23,17.23,0,0,0,0-2.238s-3.866-1.333-5.724-1.685a3.139,3.139,0,0,0-.98,1.511A30.1,30.1,0,0,0,583.531,266.222Z" transform="translate(-545.286 -240.503)" fill="#14988c"/>
      <path id="Path_2010" data-name="Path 2010" d="M570.027,255.872s.649,2.878.4,3.573-1.967.245-1.967.245Z" transform="translate(-523.828 -240.503)" fill="#ffd1ab"/>
    </g>
    <g id="Group_3797" data-name="Group 3797" transform="translate(224 -10)">
      <g id="Group_3795" data-name="Group 3795">
        <path id="Path_2020" data-name="Path 2020" d="M380.946,238.956H344.937a1.792,1.792,0,0,0-1.792,1.792v11.369a1.792,1.792,0,0,0,1.792,1.792h29.856c.15,1.2.994,3.575,5.332,3.575,0,0-1.785-.327-2.158-3.575h2.979a1.791,1.791,0,0,0,1.791-1.792V240.748A1.791,1.791,0,0,0,380.946,238.956Z" fill="#5fb0e7" style="mix-blend-mode: multiply;isolation: isolate"/>
        <path id="Path_2021" data-name="Path 2021" d="M380.279,238.056H344.27a1.791,1.791,0,0,0-1.791,1.791v11.37a1.792,1.792,0,0,0,1.791,1.792h29.856c.15,1.2.994,3.574,5.332,3.574,0,0-1.785-.327-2.157-3.574h2.978a1.792,1.792,0,0,0,1.792-1.792v-11.37A1.791,1.791,0,0,0,380.279,238.056Z" fill="#ebfaff"/>
        <rect id="Rectangle_426" data-name="Rectangle 426" width="36.939" height="1.544" rx="0.551" transform="translate(343.666 239.452)" fill="#b2ebf9"/>
        <rect id="Rectangle_427" data-name="Rectangle 427" width="36.939" height="1.544" rx="0.551" transform="translate(343.666 242.05)" fill="#b2ebf9"/>
        <rect id="Rectangle_428" data-name="Rectangle 428" width="36.939" height="1.544" rx="0.551" transform="translate(343.666 244.649)" fill="#b2ebf9"/>
        <rect id="Rectangle_429" data-name="Rectangle 429" width="36.939" height="1.544" rx="0.551" transform="translate(343.666 247.247)" fill="#b2ebf9"/>
        <rect id="Rectangle_430" data-name="Rectangle 430" width="36.939" height="1.544" rx="0.551" transform="translate(343.666 249.846)" fill="#b2ebf9"/>
      </g>
    </g>
    <g id="Group_3798" data-name="Group 3798" transform="translate(382.89 147.062)">
      <path id="Path_2024" data-name="Path 2024" d="M487.011,180.041h36.35a4.04,4.04,0,0,0-.355-1.269c-.925-2.182-4.294-6.594-16.426-8.563l-5.989-1.233S486.7,168.964,487.011,180.041Z" transform="translate(-487.005 -147.062)" fill="#12afa0"/>
      <path id="Path_2025" data-name="Path 2025" d="M487.006,180.041h24.3a4.041,4.041,0,0,0-.355-1.269,5.527,5.527,0,0,0-2.882-.024c-.89.237-1.483.392-1.483.392H490.777C487.693,179.14,487.006,180.041,487.006,180.041Z" transform="translate(-474.95 -147.062)" fill="#0f9a8c"/>
      <path id="Path_2026" data-name="Path 2026" d="M510.267,169.506a5.887,5.887,0,0,0-.84,2.061,2.022,2.022,0,0,1-2.078,1.555c-5.31-.3-4.957-3.616-4.957-3.616,1.095-1.673,1.76-6.632,1.76-6.632" transform="translate(-489.292 -147.062)" fill="#ffe1bd"/>
      <path id="Path_2027" data-name="Path 2027" d="M494.041,154.244s.22,6.664-2.761,6.568,0-7.349,0-7.349Z" transform="translate(-460.638 -147.062)" fill="#2c1e56"/>
      <path id="Path_2028" data-name="Path 2028" d="M491.523,161.6a13.073,13.073,0,0,0-.057,2.524,2.093,2.093,0,0,0,.045.273,2.23,2.23,0,0,0,.06.274c.721,2.854,4.335,6.881,6.873,7.208a6.742,6.742,0,0,0,.981.018c3.535-.161,5.6-3.058,6.8-6.14.041-.112.081-.216.121-.32a28.367,28.367,0,0,0,1.487-6.838c.021-.243.186-2.869-.328-3.648-.565-.856-7.551-1.666-7.7-1.679s-6.859.471-6.859.471A72.279,72.279,0,0,0,491.523,161.6Z" transform="translate(-475.936 -147.062)" fill="#ffe1bd"/>
      <path id="Path_2029" data-name="Path 2029" d="M492.993,161.489a11.136,11.136,0,0,0,.087,2.474,1.9,1.9,0,0,0,.044.273c.46,2.854,3.951,7.289,7.878,7.64a8.459,8.459,0,0,0,.876.078c4.25.172,5.727-3.031,6.9-6.2.041-.112.081-.216.121-.32,0,0-1.479,2.358-2.215,2.43s.177-.85-1.823-1.631a9.852,9.852,0,0,0-4.108-.341c-.832.11-2.326.536-2.855.611a.58.58,0,0,1-.3-.027,9.659,9.659,0,0,1-2.672-4.579C494.822,161.3,493.547,161.392,492.993,161.489Z" transform="translate(-478.494 -147.062)" fill="#2c1e56"/>
      <path id="Path_2030" data-name="Path 2030" d="M508.773,152.188s-.217,5.122-8.632,3.073c-2.309-.562-4.347-1.087-5.492-.469-1.72,5.411-1.776,8.007-2.385,7.794-.762-.266,1.3-4.761-1.329-4.276-2.013.371.088,5.332.088,5.332s-2.447.321-2.518-.815c-.042-.679-.118-10.373,1.548-12.674a4.6,4.6,0,0,1,3.654-2.2s2.106-1.775,7.068-.323,7.574-.38,7.562-.237A9.924,9.924,0,0,1,508.773,152.188Z" transform="translate(-473.99 -147.062)" fill="#2c1e56"/>
      <path id="Path_2031" data-name="Path 2031" d="M489.033,180.037s.433,8.757,4.027,14.331v.012s.035.047.094.142a.5.5,0,0,1,.1.13c1.08,1.625,7.069,10.5,10.935,14.019,4.246,3.89,9.132,8.29,9.132,8.29l.178-.155a12.093,12.093,0,0,1,1.4,1.507c.333.593.665,2.787,1.293,3.036a1.907,1.907,0,0,0,.3.071,2,2,0,0,0,.913.4,5.827,5.827,0,0,0,1.969-.2,3.953,3.953,0,0,0,.9.7,19.542,19.542,0,0,0,2.372,1.257c.7.226.818,0,.664-.438s-1.482-1.186-1.969-1.566a7.428,7.428,0,0,1-1.589-2.1c-.3-.652-.3-1.008,0-1.008s1.21.557,1.91.7,1.043-.036.7-.439a5.48,5.48,0,0,0-2.455-1.9,4.8,4.8,0,0,1-2.3-.925,7.162,7.162,0,0,1-1.293-1.565l.284-.249s-7.637-10.651-13.354-18.881c-.13-.178-.249-.332-.379-.51a30.83,30.83,0,0,1-3.534-13.722,1.972,1.972,0,0,1,.972-.937Z" transform="translate(-489.033 -147.062)" fill="#5fb0e7" style="mix-blend-mode: multiply;isolation: isolate"/>
      <path id="Path_2032" data-name="Path 2032" d="M491.672,213.164a13.373,13.373,0,0,0,2.038,2.743,4.779,4.779,0,0,0,2.3.926,5.513,5.513,0,0,1,2.465,1.89c.333.408,0,.593-.7.445s-1.612-.7-1.908-.7-.3.361,0,1.014a7.306,7.306,0,0,0,1.593,2.1c.482.371,1.816,1.112,1.965,1.557s.037.667-.667.444a18.73,18.73,0,0,1-2.372-1.26,4.091,4.091,0,0,1-.9-.695,5.876,5.876,0,0,1-1.968.2,2.186,2.186,0,0,1-.923-.4,1.808,1.808,0,0,1-.29-.069c-.63-.256-.964-2.442-1.3-3.035a28.425,28.425,0,0,0-2.761-2.8Z" transform="translate(-464.357 -147.062)" fill="#ffe1bd"/>
      <path id="Path_2033" data-name="Path 2033" d="M499.838,194.375v-.007c-3.6-5.573-4.822-14.331-4.822-14.331l4.6-3.131,2.35,1.128c1.475-.645,4-1.6,4-1.6l1.1,3.6a2,2,0,0,0-.974.937,30.939,30.939,0,0,0,3.533,13.724c.129.175.256.329.386.516,5.709,8.222,13.35,18.871,13.35,18.871l-3.268,2.874s-4.892-4.4-9.141-8.285c-3.857-3.525-9.849-12.4-10.929-14.019-.03-.046-.061-.092-.092-.138Z" transform="translate(-495.016 -147.062)" fill="#12afa0"/>
      <path id="Path_2034" data-name="Path 2034" d="M483.877,182.211c.048-.011.083-.023.131-.035-.142.154-.237.273-.273.32-.13.142-.047.237-.047.237.178.19.332.166.557.154a.876.876,0,0,0,.415-.2.625.625,0,0,0,.522.118c.213-.023.474-.237.818-.581a.172.172,0,0,0,0,.166.639.639,0,0,0,.57.154,1.84,1.84,0,0,0,.877-.64c.119-.119.285-.32.463-.534.166-.118.32-.225.45-.308a1.235,1.235,0,0,1,.688-.225h.036v-.012c1.72-.036,2.49-.783,4.6-.783h-9.57c.023.012.035.024.059.036a4.056,4.056,0,0,0,.581.106l-.047.048c-.131.142-.249.285-.356.415-.38.463-.89,1.067-.985,1.162-.13.154-.047.249-.047.249A.614.614,0,0,0,483.877,182.211Z" transform="translate(-453.617 -147.062)" fill="#5fb0e7" style="mix-blend-mode: multiply;isolation: isolate"/>
      <path id="Path_2035" data-name="Path 2035" d="M483.474,182.211c.047-.011.083-.023.13-.035-.142.154-.237.273-.273.32-.13.142-.047.237-.047.237.178.19.332.166.557.154a.876.876,0,0,0,.415-.2.624.624,0,0,0,.522.118c.214-.023.475-.237.819-.581a.169.169,0,0,0,0,.166.637.637,0,0,0,.569.154,1.84,1.84,0,0,0,.877-.64c.119-.119.285-.32.463-.534.166-.118.32-.225.451-.308a1.231,1.231,0,0,1,.688-.225h.035v-.012c1.72-.036,2.491-.783,4.6-.783,0,0-4.934-2.372-7.911-.688a9.866,9.866,0,0,1-1.257.131c-.866.012-.617.45-.344.593a4.056,4.056,0,0,0,.581.106l-.047.048c-.131.142-.249.285-.356.415-.379.463-.889,1.067-.984,1.162-.131.154-.048.249-.048.249A.615.615,0,0,0,483.474,182.211Z" transform="translate(-452.81 -147.062)" fill="#ffe1bd"/>
      <path id="Path_2036" data-name="Path 2036" d="M491.057,180.077a4.056,4.056,0,0,0,.581.106,8.274,8.274,0,0,1,1.02-.83,9.866,9.866,0,0,1-1.257.131C490.535,179.5,490.784,179.934,491.057,180.077Z" transform="translate(-460.097 -147.062)" opacity="0.47" fill="url(#linear-gradient-5)" style="mix-blend-mode: multiply;isolation: isolate"/>
    </g>
    <g id="Group_3831" data-name="Group 3831" transform="translate(116.374 79.448)">
      <circle id="Ellipse_22" data-name="Ellipse 22" cx="18.667" cy="18.667" r="18.667" transform="translate(413.536 191.552)" fill="#f9b253"/>
      <g id="Group_3830" data-name="Group 3830" transform="translate(420.252 205.708)">
        <g id="Group_3828" data-name="Group 3828">
          <path id="Path_2102" data-name="Path 2102" d="M426.746,199.816l-7.415,2.716,7.415,2.693v2.785l-10.6-4.03v-2.9l10.6-4.028Z" transform="translate(-416.147 -197.056)" fill="#f9fbfc"/>
        </g>
        <g id="Group_3829" data-name="Group 3829" transform="translate(13.019)">
          <path id="Path_2103" data-name="Path 2103" d="M421.209,197.056l10.6,4.028v2.9l-10.6,4.03v-2.785l7.415-2.693-7.415-2.716Z" transform="translate(-421.209 -197.056)" fill="#f9fbfc"/>
        </g>
      </g>
    </g>
  </g>
</svg>
